<?xml version="1.0" encoding="utf-8"?>
<!-- Generator: Adobe Illustrator 28.0.0, SVG Export Plug-In . SVG Version: 6.00 Build 0)  -->
<svg version="1.1" id="Ebene_1" xmlns="http://www.w3.org/2000/svg" xmlns:xlink="http://www.w3.org/1999/xlink" x="0px" y="0px"
	 viewBox="0 0 600 770" style="enable-background:new 0 0 600 770;" xml:space="preserve">
<g>
	<path d="M20.7,768.2c-6.7,0-12.9-3.4-16.6-9l-0.3-0.4c-5.9-9.1-3.3-21.4,5.8-27.3L543,385.2L9.7,39C0.6,33-2,20.8,3.9,11.7l0.3-0.4
		c3.7-5.6,9.9-9,16.6-9c3.8,0,7.5,1.1,10.7,3.2l559.2,363.1c5.3,3.4,8.5,9,8.9,15.3c0,0.5,0,0.9,0,1.4c0,0.5,0,0.9,0,1.4
		c-0.4,6.4-3.7,11.9-8.9,15.4L31.5,765C28.3,767.1,24.6,768.2,20.7,768.2z"/>
	<path d="M20.7,1.7v1c3.7,0,7.3,1.1,10.5,3.1l559.2,363.1c5.1,3.3,8.3,8.8,8.7,15c0,0.5,0,0.9,0,1.3c0,0.4,0,0.8,0,1.3l0,0l0,0
		c-0.4,6.2-3.6,11.6-8.7,14.9L31.2,764.6c-3.1,2-6.7,3.1-10.5,3.1c-6.6,0-12.6-3.3-16.2-8.8l-0.3-0.4c-5.8-8.9-3.2-20.8,5.7-26.6
		l532.7-345.8l1.3-0.8l-1.3-0.8L10,38.5c-4.3-2.8-7.3-7.1-8.3-12.1c-1.1-5-0.1-10.2,2.7-14.5l0.3-0.4C8.2,6,14.2,2.7,20.7,2.7
		L20.7,1.7 M20.7,1.7c-6.6,0-13.1,3.3-17,9.2l-0.3,0.4c-6.1,9.4-3.4,21.9,6,28l532.7,345.8L9.4,731.1c-9.4,6.1-12,18.6-6,28l0.3,0.4
		c3.9,6,10.4,9.2,17,9.2c3.8,0,7.6-1.1,11-3.3L591,402.4c5.6-3.6,8.8-9.5,9.2-15.7c0,0,0,0,0,0c0-0.5,0-0.9,0-1.4c0-0.5,0-0.9,0-1.4
		c0,0,0,0,0,0c-0.4-6.2-3.6-12.1-9.2-15.7L31.7,5C28.3,2.8,24.5,1.7,20.7,1.7L20.7,1.7z"/>
</g>
</svg>
