<?xml version="1.0" encoding="utf-8"?>
<!-- Generator: Adobe Illustrator 28.0.0, SVG Export Plug-In . SVG Version: 6.00 Build 0)  -->
<svg version="1.1" id="Ebene_1" xmlns="http://www.w3.org/2000/svg" xmlns:xlink="http://www.w3.org/1999/xlink" x="0px" y="0px"
	 viewBox="0 0 600 770" style="enable-background:new 0 0 600 770;" xml:space="preserve">
<g>
	<path d="M579.6,768.2c-3.8,0-7.5-1.1-10.7-3.2L9.7,402c-5.3-3.4-8.5-9-8.9-15.3c0-0.5,0-0.9,0-1.4c0-0.5,0-0.9,0-1.4
		c0.4-6.4,3.7-11.9,8.9-15.4L568.9,5.4c3.2-2.1,6.9-3.2,10.7-3.2c6.7,0,12.9,3.4,16.6,9l0.3,0.4c5.9,9.1,3.3,21.4-5.8,27.3
		L57.4,385.2l533.3,346.3c9.1,5.9,11.7,18.2,5.8,27.3l-0.3,0.4C592.6,764.9,586.4,768.2,579.6,768.2L579.6,768.2z"/>
	<path d="M579.6,2.7c6.6,0,12.6,3.3,16.2,8.8l0.3,0.4c2.8,4.3,3.8,9.5,2.7,14.5c-1.1,5-4,9.3-8.3,12.1L57.7,384.4l-1.3,0.8l1.3,0.8
		l532.7,345.8c8.9,5.8,11.4,17.7,5.7,26.6l-0.3,0.4c-3.6,5.5-9.6,8.8-16.2,8.8c-3.7,0-7.3-1.1-10.5-3.1L9.9,401.5
		c-5.1-3.3-8.3-8.8-8.7-15c0-0.5,0-0.9,0-1.3c0-0.4,0-0.8,0-1.3l0,0l0,0c0.4-6.2,3.6-11.6,8.7-14.9L569.2,5.8
		C572.3,3.8,575.9,2.7,579.6,2.7 M579.6,1.7c-3.8,0-7.6,1.1-11,3.3L9.4,368.1c-5.6,3.6-8.8,9.5-9.2,15.7c0,0,0,0,0,0
		c0,0.5,0,0.9,0,1.4c0,0.5,0,0.9,0,1.4c0,0,0,0,0,0c0.4,6.2,3.6,12.1,9.2,15.7l559.2,363.1c3.4,2.2,7.2,3.3,11,3.3
		c6.6,0,13.1-3.2,17-9.2l0.3-0.4c6.1-9.4,3.4-21.9-6-28L58.3,385.2L591,39.4c9.4-6.1,12-18.6,6-28l-0.3-0.4
		C592.8,5,586.3,1.7,579.6,1.7L579.6,1.7z"/>
</g>
</svg>
