<?xml version="1.0" encoding="utf-8"?>
<!-- Generator: Adobe Illustrator 28.2.0, SVG Export Plug-In . SVG Version: 6.00 Build 0)  -->
<svg version="1.1" id="Ebene_1" xmlns="http://www.w3.org/2000/svg" xmlns:xlink="http://www.w3.org/1999/xlink" x="0px" y="0px"
	 viewBox="0 0 500 500" style="enable-background:new 0 0 500 500;" xml:space="preserve">
<style type="text/css">
	.st0{opacity:0.23;}
	.st1{fill:#97999B;}
	.st2{fill:#006EC9;}
</style>
<g class="st0">
	<path class="st1" d="M445,339c-1.2,0.2-1.8,0.3-2.4,0.3c-24.4,0-48.8,0.1-73.2-0.1c-1.6,0-3.8-1.7-4.7-3.1
		c-8.5-13.7-16.7-27.5-25-41.3c-0.6-1-1-2-1.5-3.3c1.6-0.5,2.9-0.9,4.2-1.2c11.3-3,22.7-6,34-9.1c11.4-3.1,18.3-12,17.2-23.2
		c-0.5-5.2-2.3-10.2-3.5-15.4c-1.3,0.3-2,0.4-2.7,0.6c-63.8,17.1-127.5,34.2-191.3,51.1c-17.1,4.5-32.8,0.7-46.8-10
		c-3.3-2.5-6.5-5.2-10.4-8.3c0.2,1.7,0.3,2.6,0.5,3.4c3.4,12.6,6.8,25.3,10.2,37.9c4,14.5,14.7,20.6,29.3,16.7
		c41.5-11.1,83.1-22.2,124.6-33.5c4.1-1.1,6-0.3,8.1,3.3c10.8,18.4,22.1,36.6,32.9,55.1c3.9,6.7,9.2,9.6,17,9.5
		c26.2-0.2,52.4,0,78.6-0.2c3.9,0,5.2,1,5.1,5.1c-0.2,11.9-0.2,23.8,0,35.7c0.2,11.7,7.1,20.7,18.3,21.7c12.7,1,25.5,0.2,38.4,0.2
		c0-51.3,0-102.4,0-153.9c-1.5-0.1-2.9-0.3-4.2-0.3c-9.8,0-19.6-0.1-29.4,0c-14.4,0.1-23,8.7-23.2,23.1c-0.1,11.3,0,22.6,0,33.9
		C445,335.4,445,337.2,445,339z"/>
	<path class="st1" d="M134.1,318.3c-5.2-19.6-10.3-38.6-15.4-57.6c-0.3-1.2-1.3-2.3-2.3-3.2c-13.3-10.9-26.5-21.7-40-32.4
		c-1.2-0.9-3.7-1.2-5.1-0.5c-5.9,2.8-9.8,7.7-10.9,14.1c-0.6,3.9-0.5,8.2,0.4,12c5,19.8,10.4,39.5,15.8,59.2
		c3,11.1,12.7,18.8,22.9,16.9C111,324.6,122.4,321.2,134.1,318.3z"/>
	<path class="st1" d="M184.4,280.9c1.8-0.3,4.7-0.5,7.5-1.2c65.1-17.4,130.2-34.8,195.2-52.2c12.3-3.3,17.6-12.3,14.4-24.3
		c-7.3-27.3-14.6-54.6-22-81.9c-3.3-12.2-12.3-17.4-24.4-14.1c-93.5,25.1-187,50.2-280.5,75.3c-4.3,1.2-9.4,1.9-10.6,7.1
		c-1.3,5.5,3.1,8.4,6.7,11.3c29,23.6,58,47.1,86.9,70.8C165.1,277.9,173.8,280.4,184.4,280.9z M311.6,163.1
		c0,7.7-6.6,14.2-14.2,14.1c-7.6-0.1-14.1-6.8-14-14.3c0.2-7.5,6.5-13.7,14-13.7C305.2,149.1,311.6,155.4,311.6,163.1z M356.9,150.7
		c0.1,7.9-6.1,14.1-13.9,14.1c-7.8,0-14.1-6.3-14.1-14c0.1-7.5,6.3-13.8,13.7-14C350.4,136.6,356.9,143,356.9,150.7z"/>
</g>
<g>
	<path class="st2" d="M138.3,270.3c0,1-0.4,1.9-1.2,2.9c-5.5,4.4-11.8,6.6-18.6,6.6c-8.2,0-15.2-2.9-21-8.7
		c-5.7-5.7-8.7-12.8-8.7-21s2.9-15.2,8.7-20.9c5.8-5.8,12.8-8.7,21-8.7c7.1,0,13.3,2.4,19,7c0.7,0.6,1,1.5,1,2.7
		c0,0.6-0.1,1.1-0.3,1.5c-0.2,0.5-0.5,0.9-0.8,1.2c-0.3,0.4-0.8,0.6-1.2,0.8c-0.5,0.2-1,0.3-1.5,0.3c-1,0-1.9-0.4-2.7-1.1
		c-1.8-1.4-4-2.7-6.2-3.4c-2.3-0.8-4.7-1.2-7.2-1.2c-6,0-11.2,2.1-15.5,6.4c-4.2,4.2-6.3,9.3-6.3,15.4c0,6,2.1,11.2,6.3,15.5
		c4.3,4.3,9.4,6.3,15.5,6.3c4.5,0,8.5-1.1,12-3.5v-11.6h-10.2c-1.1,0-2-0.4-2.8-1.1c-0.7-0.7-1.1-1.6-1.1-2.8c0-0.5,0.1-1,0.3-1.5
		c0.2-0.5,0.5-0.9,0.8-1.2c0.3-0.3,0.8-0.6,1.2-0.8c0.5-0.2,1-0.3,1.5-0.3h14.2c0.5,0,1,0.1,1.4,0.3c0.5,0.2,0.9,0.5,1.2,0.8
		c0.3,0.3,0.6,0.8,0.8,1.2c0.2,0.5,0.3,1,0.3,1.5C138.3,252.9,138.3,270.3,138.3,270.3z"/>
	<path class="st2" d="M151.9,277.2c-0.7,1.6-1.9,2.5-3.6,2.5c-0.6,0-1.1-0.1-1.5-0.3c-0.5-0.2-0.9-0.5-1.2-0.8
		c-0.4-0.3-0.6-0.8-0.8-1.2c-0.2-0.5-0.3-1-0.3-1.5s0.1-1,0.3-1.6l19.9-51c0.8-1.8,2-2.8,3.8-2.8c1.7,0,3,0.9,3.8,2.8l19.9,51
		c0.2,0.5,0.3,1,0.3,1.6s-0.1,1.1-0.3,1.5c-0.2,0.5-0.5,0.9-0.8,1.2c-0.3,0.4-0.8,0.6-1.2,0.8c-0.5,0.2-1,0.3-1.5,0.3
		c-1.7,0-3-0.8-3.7-2.5l-16.4-42.1L151.9,277.2z"/>
	<path class="st2" d="M197.7,224.3c0-1.1,0.4-2,1.1-2.8c0.7-0.7,1.7-1.1,2.8-1.1c1.1,0,2,0.4,2.8,1.1c0.8,0.8,1.1,1.7,1.1,2.8v47.5
		H233c1.1,0,2,0.4,2.8,1.1c0.8,0.7,1.1,1.7,1.1,2.8c0,1.1-0.4,2-1.1,2.8c-0.7,0.7-1.7,1.1-2.8,1.1h-31.4c-0.6,0-1.1-0.1-1.5-0.3
		c-0.5-0.2-0.9-0.5-1.2-0.8s-0.6-0.8-0.8-1.2c-0.2-0.5-0.3-1-0.3-1.5L197.7,224.3L197.7,224.3z"/>
	<path class="st2" d="M252.6,275.7c0,1.1-0.4,2-1.1,2.8c-0.7,0.7-1.7,1.1-2.8,1.1c-1.1,0-2-0.4-2.8-1.1c-0.7-0.8-1.1-1.7-1.1-2.8
		v-51.4c0-1.1,0.4-2,1.1-2.8c0.8-0.7,1.7-1.1,2.8-1.1c1.1,0,2,0.4,2.8,1.1c0.8,0.8,1.1,1.7,1.1,2.8V275.7z"/>
	<path class="st2" d="M259.9,224.3c0-1.1,0.4-2,1.1-2.8c0.8-0.7,1.7-1.1,2.8-1.1c1.1,0,2,0.4,2.8,1.1c0.8,0.8,1.1,1.7,1.1,2.8v47.5
		h27.5c1.1,0,2,0.4,2.8,1.1c0.7,0.7,1.1,1.7,1.1,2.8c0,1.1-0.4,2-1.1,2.8c-0.8,0.7-1.7,1.1-2.8,1.1h-31.4c-0.6,0-1.1-0.1-1.5-0.3
		c-0.5-0.2-0.9-0.5-1.2-0.8c-0.4-0.3-0.6-0.8-0.8-1.2c-0.2-0.5-0.3-1-0.3-1.5V224.3z"/>
	<path class="st2" d="M342.6,220.3c0.5,0,1,0.1,1.5,0.3c0.5,0.2,0.9,0.5,1.2,0.8c0.4,0.3,0.6,0.8,0.8,1.2c0.2,0.5,0.3,1,0.3,1.5
		c0,0.6-0.1,1.1-0.3,1.5c-0.2,0.5-0.5,0.9-0.8,1.2c-0.3,0.4-0.8,0.6-1.2,0.8c-0.5,0.2-1,0.3-1.5,0.3h-34.3c-0.6,0-1.1-0.1-1.5-0.3
		c-0.5-0.2-0.9-0.5-1.2-0.8c-0.3-0.4-0.6-0.8-0.8-1.2c-0.2-0.5-0.3-1-0.3-1.5c0-0.5,0.1-1,0.3-1.5s0.5-0.9,0.8-1.2
		c0.4-0.4,0.8-0.6,1.2-0.8c0.5-0.2,1-0.3,1.5-0.3H342.6z M342.6,271.8c0.5,0,1,0.1,1.5,0.3c0.5,0.2,0.9,0.5,1.2,0.8
		c0.4,0.4,0.6,0.8,0.8,1.2c0.2,0.5,0.3,1,0.3,1.5c0,0.6-0.1,1.1-0.3,1.5c-0.2,0.5-0.5,0.9-0.8,1.2c-0.3,0.4-0.8,0.6-1.2,0.8
		c-0.5,0.2-1,0.3-1.5,0.3h-34.3c-0.6,0-1.1-0.1-1.5-0.3c-0.5-0.2-0.9-0.5-1.2-0.8c-0.3-0.3-0.6-0.8-0.8-1.2c-0.2-0.5-0.3-1-0.3-1.5
		s0.1-1,0.3-1.5c0.2-0.5,0.5-0.9,0.8-1.2c0.4-0.4,0.8-0.6,1.2-0.8c0.5-0.2,1-0.3,1.5-0.3H342.6z M339.8,246.1c0.5,0,1,0.1,1.5,0.3
		c0.5,0.2,0.9,0.5,1.2,0.8c0.3,0.3,0.6,0.8,0.8,1.2c0.2,0.5,0.3,1,0.3,1.5c0,0.6-0.1,1.1-0.3,1.5c-0.2,0.5-0.5,0.9-0.8,1.2
		c-0.4,0.4-0.8,0.6-1.2,0.8c-0.5,0.2-1,0.3-1.5,0.3h-28.6c-0.9,0-1.8-0.4-2.7-1.1c-0.8-0.7-1.2-1.6-1.2-2.8c0-0.5,0.1-1,0.3-1.4
		c0.2-0.5,0.5-0.9,0.8-1.2c0.3-0.4,0.7-0.6,1.2-0.9c0.4-0.2,0.9-0.3,1.5-0.4h28.6V246.1z"/>
	<path class="st2" d="M381.6,228.2c-3.1,0-5.8,0.5-8.4,1.6c-2.6,1-4.9,2.7-7.1,4.8c-2.1,2.1-3.8,4.5-4.8,7c-1,2.6-1.5,5.3-1.5,8.4
		c0,6,2.1,11.2,6.3,15.5c4.2,4.3,9.4,6.3,15.5,6.3c6,0,11.2-2.1,15.5-6.3c4.2-4.2,6.3-9.4,6.3-15.5c0-6-2.1-11.2-6.3-15.4
		C392.8,230.3,387.7,228.2,381.6,228.2L381.6,228.2z M411.2,250c0,8.2-2.9,15.2-8.7,21c-5.7,5.7-12.8,8.7-20.9,8.7
		c-8.2,0-15.2-2.9-21-8.7c-5.7-5.7-8.7-12.8-8.7-21s2.9-15.2,8.7-20.9c5.8-5.8,12.8-8.7,21-8.7s15.2,2.9,20.9,8.7
		c2.9,2.9,5.1,6.1,6.6,9.5C410.5,242.1,411.2,245.9,411.2,250L411.2,250z"/>
</g>
</svg>
