<?xml version="1.0" encoding="utf-8"?>
<!-- Generator: Adobe Illustrator 28.2.0, SVG Export Plug-In . SVG Version: 6.00 Build 0)  -->
<svg version="1.1" id="Ebene_1" xmlns="http://www.w3.org/2000/svg" xmlns:xlink="http://www.w3.org/1999/xlink" x="0px" y="0px"
	 viewBox="0 0 344.9 122.3" style="enable-background:new 0 0 344.9 122.3;" xml:space="preserve">
<style type="text/css">
	.st0{fill:#97999B;}
</style>
<g>
	<path class="st0" d="M38.5,98.9c0,1.3-0.5,2.4-1.4,3.1c-0.9,0.8-2.3,1.1-4,1.1c-1.6,0-2.9-0.3-4.1-0.9v-2.9c1,0.4,1.8,0.8,2.5,0.9
		c0.7,0.2,1.3,0.3,1.9,0.3c0.7,0,1.2-0.1,1.6-0.4c0.4-0.3,0.5-0.6,0.5-1.2c0-0.3-0.1-0.5-0.2-0.8c-0.2-0.2-0.4-0.4-0.7-0.6
		c-0.3-0.2-0.9-0.5-1.9-1c-0.9-0.4-1.6-0.8-2-1.2c-0.4-0.4-0.8-0.8-1.1-1.3c-0.3-0.5-0.4-1.1-0.4-1.8c0-1.3,0.4-2.3,1.3-3
		c0.9-0.7,2.1-1.1,3.6-1.1c0.8,0,1.5,0.1,2.2,0.3c0.7,0.2,1.4,0.4,2.2,0.8l-1,2.4c-0.8-0.3-1.4-0.5-1.9-0.7c-0.5-0.1-1-0.2-1.5-0.2
		c-0.6,0-1,0.1-1.4,0.4c-0.3,0.3-0.5,0.6-0.5,1.1c0,0.3,0.1,0.5,0.2,0.7c0.1,0.2,0.3,0.4,0.6,0.6c0.3,0.2,0.9,0.5,2,1
		c1.4,0.7,2.3,1.3,2.8,2C38.2,97.1,38.5,97.9,38.5,98.9L38.5,98.9z M38.5,98.9"/>
	<path class="st0" d="M76.3,102.9h-8.4V88.3h8.4v2.5H71v3.2h4.9v2.5H71v3.8h5.3V102.9z M76.3,102.9"/>
	<path class="st0" d="M113.1,90.7c-1.2,0-2.1,0.4-2.7,1.3c-0.6,0.9-1,2.1-1,3.7c0,3.3,1.2,4.9,3.7,4.9c1,0,2.3-0.3,3.7-0.8v2.6
		c-1.2,0.5-2.5,0.8-4,0.8c-2.1,0-3.8-0.6-4.9-1.9c-1.1-1.3-1.7-3.1-1.7-5.6c0-1.5,0.3-2.9,0.8-4c0.5-1.1,1.3-2,2.4-2.6
		c1-0.6,2.2-0.9,3.6-0.9c1.4,0,2.8,0.3,4.3,1l-1,2.5c-0.5-0.3-1.1-0.5-1.6-0.7C114.2,90.8,113.6,90.7,113.1,90.7L113.1,90.7z
		 M113.1,90.7"/>
	<path class="st0" d="M162,88.3v9.5c0,1.1-0.2,2-0.7,2.8c-0.5,0.8-1.2,1.4-2.1,1.9c-0.9,0.4-2,0.7-3.2,0.7c-1.9,0-3.3-0.5-4.4-1.4
		c-1-1-1.6-2.3-1.6-4v-9.4h3.1v8.9c0,1.1,0.2,2,0.7,2.5c0.5,0.5,1.2,0.8,2.2,0.8c1,0,1.7-0.3,2.2-0.8c0.5-0.5,0.7-1.4,0.7-2.5v-8.9
		H162z M162,88.3"/>
	<path class="st0" d="M200.8,94.8h1c1,0,1.7-0.2,2.2-0.5c0.5-0.3,0.7-0.8,0.7-1.5c0-0.7-0.2-1.2-0.7-1.5c-0.5-0.3-1.2-0.4-2.2-0.4
		h-0.9V94.8z M200.8,97.3v5.6h-3.1V88.3h4.3c2,0,3.5,0.4,4.4,1.1c1,0.7,1.4,1.8,1.4,3.3c0,0.9-0.2,1.6-0.7,2.3
		c-0.5,0.7-1.1,1.2-2,1.6c2.2,3.3,3.6,5.4,4.3,6.4h-3.4l-3.5-5.6H200.8z M200.8,97.3"/>
	<rect x="234.6" y="88.3" class="st0" width="3.1" height="14.6"/>
	<path class="st0" d="M270.5,102.9h-3.1v-12h-4v-2.6h11v2.6h-4V102.9z M270.5,102.9"/>
	<path class="st0" d="M309,94.3l3-6h3.3l-4.8,8.9v5.7h-3.1v-5.6l-4.8-9h3.4L309,94.3z M309,94.3"/>
	<path class="st0" d="M63.3,67.9c0,1-0.4,1.9-1.2,2.8c-5.4,4.3-11.5,6.4-18.2,6.4c-8,0-14.8-2.8-20.5-8.5
		c-5.6-5.6-8.5-12.5-8.5-20.5c0-8,2.8-14.8,8.5-20.4c5.7-5.7,12.5-8.5,20.5-8.5c6.9,0,13,2.3,18.6,6.8c0.7,0.6,1,1.5,1,2.6
		c0,0.6-0.1,1.1-0.3,1.5c-0.2,0.5-0.5,0.9-0.8,1.2c-0.3,0.4-0.8,0.6-1.2,0.8c-0.5,0.2-1,0.3-1.5,0.3c-1,0-1.9-0.4-2.6-1.1
		c-1.8-1.4-3.9-2.6-6.1-3.3c-2.2-0.8-4.6-1.2-7-1.2c-5.9,0-10.9,2.1-15.1,6.3c-4.1,4.1-6.2,9.1-6.2,15c0,5.9,2.1,10.9,6.2,15.1
		c4.2,4.2,9.2,6.2,15.1,6.2c4.4,0,8.3-1.1,11.7-3.4V54.7h-10c-1.1,0-2-0.4-2.7-1.1c-0.7-0.7-1.1-1.6-1.1-2.7c0-0.5,0.1-1,0.3-1.5
		c0.2-0.5,0.5-0.9,0.8-1.2c0.3-0.3,0.8-0.6,1.2-0.8c0.5-0.2,1-0.3,1.5-0.3h13.9c0.5,0,1,0.1,1.4,0.3c0.5,0.2,0.9,0.5,1.2,0.8
		c0.3,0.3,0.6,0.8,0.8,1.2c0.2,0.5,0.3,1,0.3,1.5V67.9z M63.3,67.9"/>
	<path class="st0" d="M76.6,74.7c-0.7,1.6-1.9,2.4-3.5,2.4c-0.6,0-1.1-0.1-1.5-0.3c-0.5-0.2-0.9-0.5-1.2-0.8
		c-0.4-0.3-0.6-0.8-0.8-1.2c-0.2-0.5-0.3-1-0.3-1.5c0-0.5,0.1-1,0.3-1.6l19.4-49.8c0.8-1.8,2-2.7,3.7-2.7c1.7,0,2.9,0.9,3.7,2.7
		l19.4,49.8c0.2,0.5,0.3,1,0.3,1.6c0,0.6-0.1,1.1-0.3,1.5c-0.2,0.5-0.5,0.9-0.8,1.2c-0.3,0.4-0.8,0.6-1.2,0.8
		c-0.5,0.2-1,0.3-1.5,0.3c-1.7,0-2.9-0.8-3.6-2.4l-16-41.1L76.6,74.7z M76.6,74.7"/>
	<path class="st0" d="M121.3,23c0-1.1,0.4-2,1.1-2.7c0.7-0.7,1.7-1.1,2.7-1.1c1.1,0,2,0.4,2.7,1.1c0.8,0.8,1.1,1.7,1.1,2.7v46.4
		h26.9c1.1,0,2,0.4,2.7,1.1c0.8,0.7,1.1,1.7,1.1,2.7c0,1.1-0.4,2-1.1,2.7c-0.7,0.7-1.7,1.1-2.7,1.1h-30.7c-0.6,0-1.1-0.1-1.5-0.3
		c-0.5-0.2-0.9-0.5-1.2-0.8c-0.3-0.3-0.6-0.8-0.8-1.2c-0.2-0.5-0.3-1-0.3-1.5V23z M121.3,23"/>
	<path class="st0" d="M174.9,73.2c0,1.1-0.4,2-1.1,2.7c-0.7,0.7-1.7,1.1-2.7,1.1c-1.1,0-2-0.4-2.7-1.1c-0.7-0.8-1.1-1.7-1.1-2.7V23
		c0-1.1,0.4-2,1.1-2.7c0.8-0.7,1.7-1.1,2.7-1.1c1.1,0,2,0.4,2.7,1.1c0.8,0.8,1.1,1.7,1.1,2.7V73.2z M174.9,73.2"/>
	<path class="st0" d="M182.1,23c0-1.1,0.4-2,1.1-2.7c0.8-0.7,1.7-1.1,2.7-1.1c1.1,0,2,0.4,2.7,1.1c0.8,0.8,1.1,1.7,1.1,2.7v46.4
		h26.9c1.1,0,2,0.4,2.7,1.1c0.7,0.7,1.1,1.7,1.1,2.7c0,1.1-0.4,2-1.1,2.7c-0.8,0.7-1.7,1.1-2.7,1.1h-30.7c-0.6,0-1.1-0.1-1.5-0.3
		c-0.5-0.2-0.9-0.5-1.2-0.8c-0.4-0.3-0.6-0.8-0.8-1.2c-0.2-0.5-0.3-1-0.3-1.5V23z M182.1,23"/>
	<path class="st0" d="M262.9,19.1c0.5,0,1,0.1,1.5,0.3c0.5,0.2,0.9,0.5,1.2,0.8c0.4,0.3,0.6,0.8,0.8,1.2c0.2,0.5,0.3,1,0.3,1.5
		c0,0.6-0.1,1.1-0.3,1.5c-0.2,0.5-0.5,0.9-0.8,1.2c-0.3,0.4-0.8,0.6-1.2,0.8c-0.5,0.2-1,0.3-1.5,0.3h-33.5c-0.6,0-1.1-0.1-1.5-0.3
		c-0.5-0.2-0.9-0.5-1.2-0.8c-0.3-0.4-0.6-0.8-0.8-1.2c-0.2-0.5-0.3-1-0.3-1.5c0-0.5,0.1-1,0.3-1.5c0.2-0.5,0.5-0.9,0.8-1.2
		c0.4-0.4,0.8-0.6,1.2-0.8c0.5-0.2,1-0.3,1.5-0.3H262.9z M262.9,69.4c0.5,0,1,0.1,1.5,0.3c0.5,0.2,0.9,0.5,1.2,0.8
		c0.4,0.4,0.6,0.8,0.8,1.2c0.2,0.5,0.3,1,0.3,1.5c0,0.6-0.1,1.1-0.3,1.5c-0.2,0.5-0.5,0.9-0.8,1.2c-0.3,0.4-0.8,0.6-1.2,0.8
		c-0.5,0.2-1,0.3-1.5,0.3h-33.5c-0.6,0-1.1-0.1-1.5-0.3c-0.5-0.2-0.9-0.5-1.2-0.8c-0.3-0.3-0.6-0.8-0.8-1.2c-0.2-0.5-0.3-1-0.3-1.5
		c0-0.5,0.1-1,0.3-1.5c0.2-0.5,0.5-0.9,0.8-1.2c0.4-0.4,0.8-0.6,1.2-0.8c0.5-0.2,1-0.3,1.5-0.3H262.9z M260.1,44.3
		c0.5,0,1,0.1,1.5,0.3c0.5,0.2,0.9,0.5,1.2,0.8c0.3,0.3,0.6,0.8,0.8,1.2c0.2,0.5,0.3,1,0.3,1.5c0,0.6-0.1,1.1-0.3,1.5
		c-0.2,0.5-0.5,0.9-0.8,1.2c-0.4,0.4-0.8,0.6-1.2,0.8c-0.5,0.2-1,0.3-1.5,0.3h-27.9c-0.9,0-1.8-0.4-2.6-1.1
		c-0.8-0.7-1.2-1.6-1.2-2.7c0-0.5,0.1-1,0.3-1.4c0.2-0.5,0.5-0.9,0.8-1.2c0.3-0.4,0.7-0.6,1.2-0.9c0.4-0.2,0.9-0.3,1.5-0.4H260.1z
		 M260.1,44.3"/>
	<path class="st0" d="M301,26.8c-3,0-5.7,0.5-8.2,1.6c-2.5,1-4.8,2.6-6.9,4.7c-2.1,2.1-3.7,4.4-4.7,6.8c-1,2.5-1.5,5.2-1.5,8.2
		c0,5.9,2.1,10.9,6.2,15.1c4.1,4.2,9.2,6.2,15.1,6.2c5.9,0,10.9-2.1,15.1-6.2c4.1-4.1,6.2-9.2,6.2-15.1c0-5.9-2.1-10.9-6.2-15
		C311.9,28.9,306.9,26.8,301,26.8L301,26.8z M329.9,48.1c0,8-2.8,14.8-8.5,20.5c-5.6,5.6-12.5,8.5-20.4,8.5c-8,0-14.8-2.8-20.5-8.5
		c-5.6-5.6-8.5-12.5-8.5-20.5c0-8,2.8-14.8,8.5-20.4c5.7-5.7,12.5-8.5,20.5-8.5c8,0,14.8,2.8,20.4,8.5c2.8,2.8,5,6,6.4,9.3
		C329.2,40.4,329.9,44.1,329.9,48.1L329.9,48.1z M329.9,48.1"/>
</g>
</svg>
