<?xml version="1.0" encoding="utf-8"?>
<!-- Generator: Adobe Illustrator 28.0.0, SVG Export Plug-In . SVG Version: 6.00 Build 0)  -->
<svg version="1.1" id="Ebene_1" xmlns="http://www.w3.org/2000/svg" xmlns:xlink="http://www.w3.org/1999/xlink" x="0px" y="0px"
	 viewBox="0 0 595.3 841.9" style="enable-background:new 0 0 595.3 841.9;" xml:space="preserve">
<style type="text/css">
	.st0{fill:#FFFFFF;}
</style>
<g>
	<path class="st0" d="M293.1,612.9c-62.4,0-124.8,0-187.1,0c0-128,0-256,0-384c128,0,256,0,384,0c0,128,0,256,0,384
		c-62.4,0-124.8,0-187.1,0c0.7-0.3,1.3-0.6,2-0.8c10.7-2.6,18.6-8.8,23.2-18.9c1.1-2.4,2.4-2.9,4.8-2.9c18.1,0.1,36.2,0.1,54.3,0
		c31.7-0.1,56.3-24.9,56.5-56.6c0-10.9,0.1-21.7,0-32.6c0-2.2,0.5-3.4,2.7-4.5c12.7-6.1,19.5-16.4,19.7-30.6
		c0.3-15.1,0.3-30.2,0-45.3c-0.3-13.6-6.8-23.8-19-29.8c-2.7-1.4-3.5-2.8-3.4-5.6c0.7-21.9-1.7-43.5-10.5-63.7
		c-24.4-56-67.1-87.6-128.2-91.8c-40.2-2.8-75.7,10.8-105.4,38c-28.1,25.8-43.9,57.9-47,96c-0.7,8.4-0.1,16.9-0.1,25
		c-14.3,6.2-22.4,16.1-22.9,31c-0.5,15.7-0.3,31.4,0,47.1c0.2,10.7,4.9,19.4,13.5,25.9c6.1,4.6,13,6.7,20.6,6.7
		c10.9,0,21.9,0,33.2,0c0,7.6,0,14.9,0,22.2c7.7,0,15,0,22.2,0c0-52.4,0-104.5,0-156.7c-7.5,0-14.7,0-22.4,0c0,7.5,0,14.8,0,22
		c-7.6,0-14.8,0-22,0c-3.6-46,17.2-92.2,60.4-117.9c43.4-25.8,97-23,136.4,7.3c36.3,27.8,51.8,65.3,49.8,110.6c-7.6,0-14.8,0-22.4,0
		c0-7.5,0-14.7,0-22c-7.7,0-15,0-22.2,0c0,52.4,0,104.5,0,156.7c7.5,0,14.7,0,22.4,0c0-7.5,0-14.8,0-22c7.6,0,14.8,0,22.3,0
		c0,11,0,21.9,0,32.7c-0.1,20.8-14.5,35.2-35.3,35.2c-17.3,0-34.7-0.1-52,0.1c-3.2,0-4.7-0.8-6.1-3.8c-6-12.6-19.4-19.9-33-18.7
		c-13.9,1.3-25.6,11.1-29.4,24.6c-3.8,13.4,0.9,27.8,12.4,35.8C282.2,609.2,287.9,610.6,293.1,612.9z"/>
	<path d="M293.1,612.9c-5.2-2.2-10.9-3.7-15.5-6.9c-11.5-8-16.2-22.4-12.4-35.8c3.8-13.5,15.5-23.3,29.4-24.6
		c13.7-1.3,27.1,6.1,33,18.7c1.4,2.9,2.9,3.8,6.1,3.8c17.3-0.2,34.7-0.1,52-0.1c20.9,0,35.3-14.4,35.3-35.2c0-10.8,0-21.6,0-32.7
		c-7.5,0-14.7,0-22.3,0c0,7.2,0,14.5,0,22c-7.7,0-15,0-22.4,0c0-52.2,0-104.3,0-156.7c7.2,0,14.5,0,22.2,0c0,7.2,0,14.5,0,22
		c7.6,0,14.8,0,22.4,0c2-45.3-13.5-82.8-49.8-110.6c-39.5-30.2-93-33.1-136.4-7.3c-43.1,25.6-64,71.9-60.4,117.9c7.2,0,14.4,0,22,0
		c0-7.2,0-14.5,0-22c7.7,0,15,0,22.4,0c0,52.2,0,104.3,0,156.7c-7.3,0-14.5,0-22.2,0c0-7.3,0-14.5,0-22.2c-11.4,0-22.3,0-33.2,0
		c-7.6,0-14.5-2.1-20.6-6.7c-8.6-6.5-13.3-15.2-13.5-25.9c-0.3-15.7-0.5-31.4,0-47.1c0.5-14.8,8.6-24.8,22.9-31
		c0-8.1-0.6-16.6,0.1-25c3.1-38.1,18.9-70.3,47-96c29.7-27.3,65.2-40.8,105.4-38c61.1,4.2,103.8,35.8,128.2,91.8
		c8.8,20.2,11.3,41.8,10.5,63.7c-0.1,2.8,0.6,4.2,3.4,5.6c12.2,6.1,18.8,16.2,19,29.8c0.3,15.1,0.3,30.2,0,45.3
		c-0.2,14.1-7,24.4-19.7,30.6c-2.2,1.1-2.7,2.3-2.7,4.5c0.1,10.9,0.1,21.7,0,32.6c-0.1,31.7-24.8,56.5-56.5,56.6
		c-18.1,0.1-36.2,0.1-54.3,0c-2.3,0-3.6,0.4-4.8,2.9c-4.6,10-12.5,16.2-23.2,18.9c-0.7,0.2-1.3,0.5-2,0.8
		C299.6,612.9,296.4,612.9,293.1,612.9z M398.9,477.3c11.8,0,23.3,0.2,34.9-0.1c5.6-0.2,9.8-5.2,9.8-10.9c0.1-15.1,0.1-30.2,0-45.2
		c0-5.7-4.3-10.7-9.9-10.9c-11.5-0.3-23.1-0.1-34.8-0.1C398.9,432.5,398.9,454.7,398.9,477.3z M196.4,410c-11.1,0-21.8,0-32.6,0
		c-7.5,0-12.2,4.6-12.2,12.1c0,14.3,0,28.7,0,43c0,7.7,4.6,12.2,12.4,12.3c9.8,0,19.7,0,29.5,0c0.9,0,1.9-0.2,2.8-0.3
		C196.4,454.7,196.4,432.6,196.4,410z M308.8,579.2c0-6.1-5.1-11.2-11.1-11.2c-6.1,0-11.2,5-11.3,11c-0.1,6.2,5.1,11.5,11.3,11.4
		C303.8,590.4,308.8,585.2,308.8,579.2z"/>
	<path class="st0" d="M398.9,477.3c0-22.6,0-44.8,0-67.2c11.7,0,23.3-0.2,34.8,0.1c5.6,0.2,9.8,5.2,9.9,10.9
		c0.1,15.1,0.1,30.2,0,45.2c0,5.7-4.2,10.7-9.8,10.9C422.2,477.6,410.6,477.3,398.9,477.3z"/>
	<path class="st0" d="M196.4,410c0,22.5,0,44.7,0,67.1c-0.9,0.1-1.9,0.3-2.8,0.3c-9.8,0-19.7,0-29.5,0c-7.8,0-12.4-4.6-12.4-12.3
		c0-14.3,0-28.7,0-43c0-7.5,4.7-12.1,12.2-12.1C174.6,410,185.3,410,196.4,410z"/>
	<path class="st0" d="M308.8,579.2c0,6-5.1,11.2-11.1,11.2c-6.2,0.1-11.4-5.2-11.3-11.4c0.1-6.1,5.2-11.1,11.3-11
		C303.8,568,308.8,573.1,308.8,579.2z"/>
</g>
</svg>
