<?xml version="1.0" encoding="utf-8"?>
<!-- Generator: Adobe Illustrator 28.2.0, SVG Export Plug-In . SVG Version: 6.00 Build 0)  -->
<svg version="1.1" id="Layer_1" xmlns="http://www.w3.org/2000/svg" xmlns:xlink="http://www.w3.org/1999/xlink" x="0px" y="0px"
	 viewBox="0 0 800 800" style="enable-background:new 0 0 800 800;" xml:space="preserve">
<path d="M159.4,474.8c-4.8-4.4-10.4-6.3-17-6.1c-2.2,0-4.4,0.5-6.6,1.3l-32.9-30.1l21.2-25l33.7,29.7l29.8-33.9l-84.3-74.1
	l-29.8,33.9l32.8,28.9l-21.9,23.7l-30-27.5c0.5-2.2,0.7-4.4,0.5-6.6c-0.2-6.6-2.8-12.2-7.6-16.5c-4.8-4.4-10.4-6.3-17-6.1
	c-2.2,0-4.6,0.5-6.6,1.3l19.1,17.3l-16.8,18.5L6.9,385.9c-0.5,2.2-0.7,4.6-0.5,6.6c0.2,6.6,2.8,11.9,7.6,16.2
	c4.8,4.4,10.4,6.4,17,6.1c2.2,0,4.8-0.5,7.1-1.5L67.1,440L19,489.9c-3.3,2.8-5,6.8-5,11.2c0,8.1,6.6,14.7,14.7,14.7
	c5,0,9.4-2.6,12.2-6.3l46.4-51.1l27.4,25l4.6,4.4c-0.5,2.2-0.7,4.8-0.7,7.1c0.2,6.6,2.8,11.9,7.6,16.5c4.8,4.4,10.4,6.4,17,6.1
	c2.2,0,4.4-0.5,6.6-1.3l-19.1-17.3l17-18.5l18.8,17.4c0.5-2.2,0.7-4.6,0.5-6.6C166.7,484.4,164.2,479,159.4,474.8z"/>
<g id="shopping_cart">
</g>
<g id="cross">
</g>
<path d="M714.4,445.8h-38c4.7,10.9,13.8,17.1,25.1,17.1c9.9,0,17.2-4.4,22.8-10.6l11.1,14.5c-8.5,9-19.5,14.5-33.7,14.5
	c-23.3,0-40.6-13.4-46.8-35.5h-13v-13.9h10.8c-0.2-1.6-0.2-3.3-0.2-5c0-1.6,0-3.4,0.2-5h-10.8V408h13c6.2-22,23.5-35.5,46.8-35.5
	c13.9,0,25.3,5.2,34,14.2l-11.5,14.8c-5.5-6.3-12.8-10.7-22.7-10.7c-11.5,0-20.5,6.4-25.1,17.1h38.1v13.9H673
	c-0.1,1.6-0.2,3.3-0.2,5c0,1.7,0.1,3.5,0.2,5h41.4V445.8z M693.6,517.6c49.9,0,90.8-40.5,90.8-90.8s-40.5-90.8-90.8-90.8
	c-50.2,0-90.5,40.8-90.5,91C603.1,477.1,643.7,517.6,693.6,517.6z"/>
<path d="M400.8,387.4c47.5,0,85.7-38.3,85.7-85.7s-38-85.7-85.7-85.7c-47.5,0-85.7,38.3-85.7,85.7
	C315.4,349.4,353.6,387.4,400.8,387.4z M201.8,635.7h-154c-49.9,0-52.7-76.2,0.9-76.2h133.5l76.5-112.7
	c22.7-30.9,48.4-45.6,84.8-45.6h114.2c36.4,0,62.1,13.5,84.8,45.6l76.8,112.7h134.4c53.9,0,50.5,76.2,1.8,76.2h-154
	c-12.2,0-26.9-4.3-35.5-17.4l-58.8-83.9L507,784H296.4l-0.3-249.6l-58.8,83.9C228.7,631.1,214,635.7,201.8,635.7z"/>
<g id="leaf">
</g>
</svg>
