<?xml version="1.0" encoding="utf-8"?>
<!-- Generator: Adobe Illustrator 28.2.0, SVG Export Plug-In . SVG Version: 6.00 Build 0)  -->
<svg version="1.1" id="Ebene_1" xmlns="http://www.w3.org/2000/svg" xmlns:xlink="http://www.w3.org/1999/xlink" x="0px" y="0px"
	 viewBox="0 0 800 800" style="enable-background:new 0 0 800 800;" xml:space="preserve">
<style type="text/css">
	.st0{fill:#0452ac;stroke:#0452ac;stroke-width:50;stroke-linecap:round;stroke-linejoin:round;stroke-miterlimit:250;}
	.st1{fill:#0452ac;}
	.st2{fill:none;stroke:#0452ac;stroke-width:50;stroke-linecap:round;stroke-linejoin:round;stroke-miterlimit:250;}
	.st3{fill:#FFFFFF;}
</style>
<path class="st0" d="M281.1,515.7L281.1,515.7c-22.2,0-40.3-18.1-40.3-40.3v-80.7c0-22.2,18.2-40.3,40.3-40.3l0,0
	c22.2,0,40.3,18.1,40.3,40.3v80.7C321.5,497.5,303.3,515.7,281.1,515.7z"/>
<g>
	<ellipse class="st1" cx="251.3" cy="198.2" rx="46.8" ry="30.2"/>
</g>
<g>
	<circle class="st1" cx="307.4" cy="200.7" r="30.2"/>
</g>
<line class="st2" x1="281.8" y1="205.2" x2="282.9" y2="395.4"/>
<rect x="121.4" y="458.4" class="st3" width="321.1" height="108.1"/>
<path class="st1" d="M709.8,409l-20-40c0-0.1-0.1-0.2-0.2-0.3l-80.7-161.3c-3.4-6.8-10.4-11.1-18-11.1H449.7
	c-11.1,0-20.2,9-20.2,20.2v221.8H127.1c-11.1,0-20.2,9-20.2,20.2v121c0,11.1,9,20.2,20.2,20.2H170c9,34.8,40.6,60.5,78.1,60.5
	s69.1-25.7,78.1-60.5h123.6h42.9c9,34.8,40.6,60.5,78.1,60.5s69.1-25.7,78.1-60.5h42.9c11.1,0,20.2-9,20.2-20.2V418.1
	C711.9,414.9,711.2,411.8,709.8,409z M638.9,357.6H530.4v-121h48L638.9,357.6z M147.2,478.6h282.3v80.7H326.2
	c-9-34.8-40.6-60.5-78.1-60.5S179,524.5,170,559.3h-22.7L147.2,478.6L147.2,478.6z M248.1,619.7c-22.2,0-40.3-18.1-40.3-40.3
	s18.1-40.3,40.3-40.3s40.3,18.1,40.3,40.3S270.3,619.7,248.1,619.7z M570.7,619.7c-22.2,0-40.3-18.1-40.3-40.3s18.1-40.3,40.3-40.3
	s40.3,18.1,40.3,40.3S593,619.7,570.7,619.7z M671.6,559.2h-22.7c-9-34.8-40.6-60.5-78.1-60.5s-69.1,25.7-78.1,60.5h-22.8V458.4
	V236.6h20.2v141.2c0,11.1,9,20.2,20.2,20.2h148.9l12.5,24.9v136.3H671.6z"/>
<path class="st1" d="M161.1,338.1H41.6c-7.8,0-14.1-6.3-14.1-14.1v-3.8c0-7.8,6.3-14.1,14.1-14.1h119.5c7.8,0,14.1,6.3,14.1,14.1
	v3.8C175.2,331.8,168.9,338.1,161.1,338.1z"/>
<path class="st1" d="M281.4,142.9H161.9c-7.8,0-14.1-6.3-14.1-14.1V125c0-7.8,6.3-14.1,14.1-14.1h119.5c7.8,0,14.1,6.3,14.1,14.1
	v3.8C295.5,136.5,289.2,142.9,281.4,142.9z"/>
<path class="st1" d="M190.9,260.1h-82.8c-6.6,0-12-5.4-12-12v-8c0-6.6,5.4-12,12-12h82.8c6.6,0,12,5.4,12,12v8
	C202.9,254.7,197.5,260.1,190.9,260.1z"/>
<path class="st1" d="M186.6,420h-82.8c-6.6,0-12-5.4-12-12v-8c0-6.6,5.4-12,12-12h82.8c6.6,0,12,5.4,12,12v8
	C198.6,414.6,193.3,420,186.6,420z"/>
</svg>
