<?xml version="1.0" encoding="utf-8"?>
<!-- Generator: Adobe Illustrator 28.2.0, SVG Export Plug-In . SVG Version: 6.00 Build 0)  -->
<svg version="1.1" id="Ebene_1" xmlns="http://www.w3.org/2000/svg" xmlns:xlink="http://www.w3.org/1999/xlink" x="0px" y="0px"
	 viewBox="0 0 800 800" style="enable-background:new 0 0 800 800;" xml:space="preserve">
<style type="text/css">
	.st0{fill-rule:evenodd;clip-rule:evenodd;fill:#0452ac;}
	.st1{fill:#FFFFFF;}
	.st2{fill:#0452ac;}
</style>
<g id="Page-1">
	<g id="Dribbble-Light-Preview" transform="translate(-140.000000, -7159.000000)">
		<g id="icons" transform="translate(56.000000, 160.000000)">
			<path id="desktop-_x5B__x23_231_x5D_" class="st0" d="M652,7169c0-11.6-9.4-21-21-21H337c-11.6,0-21,9.4-21,21v210
				c0,11.6,9.4,21,21,21h294c11.6,0,21-9.4,21-21V7169z M694,7138L694,7138v252.1v0.1c0,23.1-14.1,51.8-37.3,51.8H530.7
				c-11.6,0-21,9.4-21,21s9.4,21,21,21h63c11.6,0,21,9.4,21,21s-9.4,21-21,21h-210c-11.6,0-21-9.4-21-21s9.4-21,21-21h63
				c11.6,0,21-9.4,21-21s-9.4-21-21-21H320.7h-0.1c-23.2,0-46.7-28.7-46.7-51.9v-252c0-23.2,23.5-32.1,46.7-32.1h0.1h336
				C679.9,7106,694,7114.9,694,7138L694,7138z M524.8,7273.1l-64.9,40.3c-7,4.4-17.9-0.6-17.9-9v-80.5c0-8.3,10.9-13.4,17.9-8.9
				l65.8,40.3C532.3,7259.3,531.4,7268.9,524.8,7273.1L524.8,7273.1z"/>
		</g>
	</g>
</g>
<circle class="st1" cx="630.4" cy="510.9" r="120.2"/>
<path class="st2" d="M686.7,381.5c-74.9-30-159.8,6.3-189.9,81.2s6.3,159.8,81.2,189.9s159.8-6.3,189.9-81.2
	S761.5,411.5,686.7,381.5z M557.2,555.7c-2.9,2.2-6.7,2.7-10,1.4c-1.7-0.7-3.1-1.8-4.2-3.2c-3.4-4.4-2.7-10.7,1.7-14.2c0,0,0,0,0,0
	l15.4-11.7c1.6-1.2,3.7-1.5,5.6-0.8l1.4,0.5c6.7,2.7,9.8,8.6,9.6,13.1L557.2,555.7z M647.6,556.8L587,532.6l-40.3-16.1
	c-5.2-2-7.7-7.9-5.7-13.1c0.1-0.2,0.1-0.3,0.2-0.5c2.2-5,8.2-7.1,13.3-5l29.2,11.7l58.2-45l0,0l-3.6-23.6
	c-0.8-5.4,2.6-10.6,8.1-11.6c5.5-1.1,10.8,2.5,11.9,8c0,0.1,0.1,0.3,0.1,0.4l1.9,12.6l0.1,0l10.1-7.8c4.5-3.4,10.8-2.6,14.2,1.9
	c0.1,0.1,0.1,0.2,0.2,0.3c3.2,4.5,2,10.6-2.3,14l-18.9,14.6l-18.3,14.2l-39.8,30.8l0,0.1l34.9,14c4.4,1.8,8.9,6.3,9.6,11l0,0.5
	c0.6,4.1,0.8,6.8-0.5,10.2C649.1,555.1,648.5,556,647.6,556.8L647.6,556.8z M694.6,575.7l-16.4-6.6l0,0.1l3.8,25.2
	c0.9,5.5-2.8,10.8-8.4,11.8c-1.8,0.3-3.7,0.1-5.4-0.6c-3.3-1.3-5.7-4.3-6.3-7.9l-5.6-37.3l-3.5-23.2l-4.5-30
	c-1.4-8.7,2-17.5,8.8-23.1c4.8-3.8,7.5-4.3,7.5-4.3l10.2,66.1l27.2,10.9c5.1,2,7.9,7.7,6.1,12.8c-1.9,5.3-7.7,8.1-13,6.2
	C694.9,575.9,694.8,575.8,694.6,575.7L694.6,575.7z"/>
<ellipse transform="matrix(0.9578 -0.2874 0.2874 0.9578 -126.7947 65.1383)" class="st1" cx="158.5" cy="464.5" rx="75.5" ry="92.5"/>
<path class="st2" d="M251,414c-12,3.5-18.9,16.1-15.4,28.1l22.5,76.9c3.5,12,16.1,18.9,28.1,15.4c12-3.5,18.9-16.1,15.4-28.1l0,0
	l-22.5-76.9C275.6,417.4,263,410.5,251,414L251,414z M35.6,477.1c-12,3.5-18.9,16.1-15.4,28.1L42.7,582c3.5,12,16.1,18.9,28.1,15.4
	s18.9-16.1,15.4-28.1l-22.5-76.9C60.1,480.4,47.6,473.5,35.6,477.1C35.6,477,35.6,477.1,35.6,477.1z M167.6,368.2l6.1-27.4
	c0.8-3.3-1.2-6.5-4.5-7.3c0,0-0.1,0-0.1,0c-3.3-0.8-6.5,1.3-7.3,4.5c0,0,0,0.1,0,0.1l-6.3,28c-11.2-1.1-22.8-0.1-34.4,3.3
	c-11.6,3.4-22,8.9-30.8,15.8l-20.4-20.2c-2.4-2.4-6.2-2.4-8.6,0c0,0,0,0-0.1,0.1c-2.4,2.4-2.3,6.3,0.1,8.6c0,0,0,0,0,0l19.9,19.8
	c-19.6,20.3-28.3,48.8-20.3,76.1c0.1,0.2,0.1,0.4,0.2,0.6c0,0.1,0,0.2,0.1,0.3l0,0l164.8-48.2l-0.3-0.9
	C217.7,394.1,195,374.8,167.6,368.2z M96.1,425.4c-3.3,0.9-6.6-1-7.6-4.2s1-6.6,4.2-7.6s6.6,1,7.6,4.2S99.4,424.5,96.1,425.4
	L96.1,425.4z M172.2,403.1c-3.3,0.7-6.6-1.4-7.3-4.7c-0.6-3,1-5.9,3.8-7c3.2-0.9,6.6,0.9,7.6,4.2
	C177.3,398.8,175.4,402.2,172.2,403.1z M97.7,595.5c3.2,11,14.7,17.3,25.8,14.1l10-2.9l11.9,40.8c3.5,12,16.1,18.9,28.1,15.3
	c12-3.5,18.9-16.1,15.4-28.1l-11.9-40.8l18.1-5.3l11.9,40.8c3.5,12,16.1,18.9,28,15.4c12-3.5,18.9-16.1,15.4-28.1l-11.9-40.8l10-2.9
	c11-3.2,17.3-14.7,14.1-25.7l-35.2-120.4L62.5,475L97.7,595.5L97.7,595.5z"/>
</svg>
