<?xml version="1.0" encoding="utf-8"?>
<!-- Generator: Adobe Illustrator 28.2.0, SVG Export Plug-In . SVG Version: 6.00 Build 0)  -->
<svg version="1.1" id="Layer_1" xmlns="http://www.w3.org/2000/svg" xmlns:xlink="http://www.w3.org/1999/xlink" x="0px" y="0px"
	 viewBox="0 0 800 800" style="enable-background:new 0 0 800 800;" xml:space="preserve">
<style type="text/css">
	.st0{fill:#0452ac;}
</style>
<g>
	<g>
		<path class="st0" d="M719.1,100H80.8C36.2,100,0,136.2,0,180.9v438.3C0,663.8,36.2,700,80.8,700h638.3c44.7,0,80.9-36.2,80.9-80.9
			V180.9C800,136.2,763.8,100,719.1,100z M439.4,385.8c-22.4,20.4-56.4,20.4-78.7,0.1L116.5,166.7h566.9L439.4,385.8z M66.7,211.5
			l164.2,147.4L66.7,577.8V211.5z M280.6,403.6l35.4,31.8c47.6,43.2,120.4,43.2,168.1-0.1l35.2-31.6l172.3,229.7H108.3L280.6,403.6z
			 M569.1,358.9l164.2-147.4v366.3L569.1,358.9z"/>
	</g>
</g>
</svg>
