<?xml version="1.0" encoding="utf-8"?>
<!-- Generator: Adobe Illustrator 28.0.0, SVG Export Plug-In . SVG Version: 6.00 Build 0)  -->
<svg version="1.1" id="Ebene_1" xmlns="http://www.w3.org/2000/svg" xmlns:xlink="http://www.w3.org/1999/xlink" x="0px" y="0px"
	 viewBox="0 0 404 402" style="enable-background:new 0 0 404 402;" xml:space="preserve">
<style type="text/css">
	.st0{fill:#8E0404;}
	.st1{fill:#FFFFFF;}
</style>
<path class="st0" d="M115.5,143.1c-0.1-9.2-9-14.4-16.6-10.3c-6.7,3.6-13.2,7.4-19.7,11.3c-5.5,3.3-7.1,9.9-4,15.3
	c3,5.1,9.4,7.1,14.9,4.2c6.8-3.6,13.4-7.6,20-11.5C113.7,149.9,115.4,146.5,115.5,143.1z"/>
<path class="st0" d="M359.5,153.7c0-3.6-1.7-7.2-4.9-9.2c-6.9-4.2-13.8-8.3-21-12.1c-5.3-2.8-11.6-0.6-14.5,4.5
	c-2.9,5.1-1.6,11.6,3.6,14.8c6.7,4.2,13.6,8.3,20.7,11.9C350.8,167.5,359.5,162,359.5,153.7z"/>
<path class="st0" d="M85.1,22.4c-5.2,0.4-9.5,3.6-10.9,8.5c-1.4,4.8,0.4,9.8,4.9,12.6c6.3,3.8,12.7,7.4,19,11
	c6,3.4,12.7,1.8,15.9-3.7c3.2-5.6,1.3-12.1-4.7-15.7c-6.1-3.6-12.2-7.2-18.4-10.6C89.1,23.5,87,23.1,85.1,22.4z"/>
<path class="st0" d="M359.5,34.5c-0.1-9.1-9-14.4-16.7-10.3c-6.7,3.6-13.2,7.4-19.7,11.4c-5.5,3.3-7.1,9.9-4,15.3
	c3,5.1,9.4,7.1,14.9,4.1c6.8-3.6,13.4-7.6,20-11.5C357.8,41.3,359.4,37.9,359.5,34.5z"/>
<path class="st0" d="M85.6,105.1c3.6,0,7.2,0.1,10.8,0c6.7-0.1,11.6-4.9,11.6-11.1c0.1-6.3-4.9-11.2-11.4-11.3
	c-7.3-0.1-14.7-0.1-22,0c-6.6,0.1-11.5,5.1-11.4,11.3c0.1,6.1,4.9,10.9,11.3,11.1C78.1,105.1,81.9,105.1,85.6,105.1z"/>
<path class="st0" d="M347.4,105.1c3.9,0,7.7,0.1,11.6,0c6.3-0.2,11.1-5.2,11.1-11.3c0-6.1-4.9-11-11.2-11.1
	c-7.5-0.1-14.9-0.1-22.4,0c-6.4,0.1-11.2,5-11.3,11.1c-0.1,6.2,4.8,11.2,11.4,11.3C340.2,105.1,343.8,105.1,347.4,105.1z"/>
<path class="st0" d="M115.5,143.1c-0.1,3.4-1.8,6.8-5.4,8.9c-6.6,4-13.3,7.9-20,11.5c-5.5,2.9-11.9,1-14.9-4.2
	c-3.1-5.3-1.5-11.9,4-15.3c6.5-3.9,13-7.8,19.7-11.3C106.5,128.6,115.4,133.9,115.5,143.1z"/>
<path class="st0" d="M359.5,153.7c0,8.3-8.7,13.8-16.2,9.9c-7.1-3.7-13.9-7.7-20.7-11.9c-5.1-3.2-6.5-9.7-3.6-14.8
	c2.9-5.1,9.2-7.3,14.5-4.5c7.1,3.8,14.1,7.9,21,12.1C357.9,146.5,359.5,150.1,359.5,153.7z"/>
<path class="st0" d="M85.1,22.4c2,0.7,4.1,1.1,5.9,2.1c6.2,3.4,12.3,7,18.4,10.6c6,3.6,7.9,10.1,4.7,15.7c-3.2,5.5-9.9,7.1-15.9,3.7
	c-6.4-3.6-12.8-7.2-19-11c-4.5-2.8-6.3-7.7-4.9-12.6C75.6,26,79.9,22.7,85.1,22.4z"/>
<path class="st0" d="M359.5,34.5c-0.1,3.5-1.8,6.9-5.3,9c-6.6,4-13.2,7.9-20,11.5c-5.5,3-11.9,1-14.9-4.1c-3.1-5.3-1.5-11.9,4-15.3
	c6.5-3.9,13-7.8,19.7-11.4C350.5,20.1,359.4,25.3,359.5,34.5z"/>
<path class="st0" d="M85.6,105.1c-3.7,0-7.5,0.1-11.2,0c-6.4-0.2-11.2-5-11.3-11.1c-0.1-6.2,4.9-11.2,11.4-11.3
	c7.3-0.1,14.7-0.1,22,0c6.6,0.1,11.5,5,11.4,11.3c-0.1,6.3-5,11-11.6,11.1C92.8,105.1,89.2,105.1,85.6,105.1z"/>
<path class="st0" d="M347.4,105.1c-3.6,0-7.2,0.1-10.8,0c-6.6-0.2-11.5-5.1-11.4-11.3c0.1-6.1,4.9-11,11.3-11.1
	c7.5-0.1,14.9-0.1,22.4,0c6.4,0.1,11.2,5,11.2,11.1c0,6.1-4.8,11.1-11.1,11.3C355.1,105.2,351.2,105.1,347.4,105.1z"/>
<path d="M10,242c2.9-6.3,7.8-8.5,14.7-8.3c15.8,0.3,31.7,0.1,47.5,0.1c10.1,0,14.1,3.9,14.1,13.9c0,1.2,0,2.5,0,4.3
	c2.9-1.3,5.5-2.4,8-3.5c22.4-9.2,44.4-8.3,65.6,3.3c11.1,6.1,22.6,9.3,35.3,9c14.5-0.4,28.9,0.3,43.4-0.2
	c14.8-0.5,26.6,4.4,34.7,17.6c2.5-1.7,4.8-3.3,7.1-4.9c18.8-13.2,37.5-26.4,56.4-39.5c21-14.5,48.6-4.7,55.1,19.5
	c3.7,13.8-0.3,25.6-10.5,35.4c-16.5,15.8-33,31.5-49.5,47.3c-10.3,9.8-20.4,19.8-31,29.3c-15.8,14.3-34.5,22.5-55.7,25
	c-1.1,0.1-2.2,0.5-3.3,0.7c-74.6,0-149.2,0-223.8,0c-3.7-1.8-6.4-4.5-8.2-8.2C10,335.9,10,288.9,10,242z M86.4,368.4
	c1.1,0.1,1.6,0.1,2.1,0.1c49,0,98,0.2,147-0.1c19.6-0.1,36.9-7.1,51.2-20.5c26.6-25,52.9-50.4,79.3-75.6c5.7-5.4,6.3-12.6,1.8-18.1
	c-4.5-5.6-11.8-6.3-18.4-1.7c-23.7,16.6-47.4,33.1-71,49.8c-1.2,0.9-2.3,2.2-2.9,3.6c-5.9,14.4-17.5,22.2-33.1,22.3
	c-11.1,0-22.2,0-33.3,0c-12.3,0-24.7,0.1-37,0c-7.5-0.1-12.9-6-11.9-12.7c0.9-5.9,5.4-9.7,11.8-9.7c23.4,0,46.9,0,70.3,0
	c7.6,0,12.6-4.5,12.6-11.3c0-6.7-5-11.1-12.7-11.1c-15.7,0-31.4-0.2-47.1,0.1c-16.4,0.3-31.5-3.3-45.7-11.7
	c-10.9-6.5-23.1-8.6-35.3-5.5c-8.3,2.1-16.2,6.3-24.3,9.4c-2.6,1-3.4,2.4-3.4,5.2c0.1,27.9,0.1,55.9,0.1,83.8
	C86.4,365.7,86.4,366.9,86.4,368.4z M63.6,368.4c0-37.5,0-74.7,0-111.8c-10.5,0-20.8,0-31,0c0,37.4,0,74.5,0,111.8
	C43,368.4,53.2,368.4,63.6,368.4z"/>
<path class="st0" d="M216.7,239.8c5.2,0,10.5,0,15.7,0c17.1,0,28.1-11,28.2-28c0-9.9-0.3-19.7,0.2-29.6c0.2-4.3,1.2-9,3.2-12.8
	c2.2-4,5.7-7.5,9.1-10.7c24.4-22.6,34.3-50.3,27.4-82.8C290.8,29.4,247.2,1,200.3,9.3c-45.1,8-76.8,53.7-68.6,98.8
	c3.8,20.7,13.4,37.9,29.5,51.5c7.8,6.6,11.9,14.7,11.5,25.2c-0.3,9.5-0.2,19,0,28.4c0.2,15.4,11.5,26.5,26.9,26.6
	C205.2,239.8,211,239.8,216.7,239.8z"/>
<path class="st1" d="M239.1,172.3c2.8-13.4,10.8-22.9,20.6-31.8c16-14.7,22.6-33.3,20-55c-4.4-35.7-38.9-60.9-74.2-54.3
	c-36.4,6.8-59.5,42.6-50.5,78.1c3.3,12.9,9.9,23.9,20.1,32.5c8.3,7.1,14.8,15.5,18,26.1c0.5,1.5,0.9,3,1.3,4.4c3.8,0,7.3,0,10.9,0
	c0.1-0.6,0.2-1.1,0.2-1.6c0-18.3,0.1-36.7-0.1-55c0-1.4-0.9-3.1-1.9-4.1c-5.6-5.8-11.5-11.4-17.1-17.3c-6.2-6.6-3.3-16.8,5.4-18.8
	c4.6-1.1,8.3,0.7,11.4,3.9c4.4,4.5,8.8,9,13.5,13.7c5-5.1,9.6-9.7,14.2-14.3c3-3,6.7-4.4,10.9-3.3c8.7,2.2,11.5,12.2,5.2,18.9
	c-5.5,5.8-11.3,11.2-16.8,17c-1.2,1.3-2.1,3.4-2.1,5.1c-0.2,17.5-0.1,34.9-0.1,52.4c0,1.1,0.1,2.2,0.2,3.4
	C231.7,172.3,235.2,172.3,239.1,172.3z"/>
<path class="st1" d="M195.2,195c0,6.4-0.2,12.8,0.2,19.2c0.1,1.1,2.3,2.9,3.6,2.9c11.8,0.2,23.6,0.2,35.5,0c1.3,0,3.5-2.2,3.5-3.4
	c0.4-6.2,0.2-12.4,0.2-18.7C223.7,195,209.6,195,195.2,195z"/>
</svg>
