<?xml version="1.0" encoding="utf-8"?>
<!-- Generator: Adobe Illustrator 28.2.0, SVG Export Plug-In . SVG Version: 6.00 Build 0)  -->
<svg version="1.1" id="Layer_1" xmlns="http://www.w3.org/2000/svg" xmlns:xlink="http://www.w3.org/1999/xlink" x="0px" y="0px"
	 viewBox="0 0 800 800" style="enable-background:new 0 0 800 800;" xml:space="preserve">
<style type="text/css">
	.st0{fill:#0452ac;}
</style>
<g>
	<g>
		<g>
			<path class="st0" d="M636.1,456.4h-78.5c22.6,0,43.8-8.4,60.4-23.9c17.8-16.7,28-40.2,28-64.6v-39.7c0-37.8-30.7-68.5-68.5-68.5
				h-40c-36.4,0-66.2,28.6-68.3,64.5c-4.2-2.5-8.9-4.3-14-5c-8.4-12.5-22.4-20.1-37.7-20.1h-42.1c-17.6,0-33.5,7.1-45.1,18.7
				c-5.2-32.8-33.7-58-67.9-58h-39.4c-38,0-68.9,30.9-68.9,68.9v36.7c0,48.1,36.3,88.1,82.7,91.1c1.9,0.1,3.9,0.2,5.8,0.2h-78.6
				c-38,0-68.9,30.9-68.9,68.9v98.4h157.4V663h295.2v-39.4H705v-98.4C705,487.3,674.1,456.4,636.1,456.4z M576.3,476.1l-18.9,23.6
				l-18.9-23.6H576.3z M537.4,279.3h40c26.2,0,47.5,20.8,48.6,46.7c-45.1-9.6-92.2-9.6-137.3,0C489.9,300.1,511.2,279.3,537.4,279.3
				z M488.5,358v-11.8c45.1-10.3,92.6-10.3,137.7,0v21.6c0,19.2-7.7,37.1-21.8,50.3c-14,13.2-32.4,19.7-51.7,18.5
				c-36-2.3-64.3-33.7-64.3-71.4V358z M487.4,420.9c15,20.1,38,33.6,64.2,35.3c1.9,0.1,3.9,0.2,5.8,0.2h-78.6
				c-1.8,0-3.7,0.3-5.5,0.4C480.5,446.1,485.3,433.8,487.4,420.9z M331.1,367.8v-5.1c0-24.3,19.8-44.1,44.1-44.1h42.1
				c9.8,0,18.7,5.5,23,14.2l2.7,5.4h6.1c10.9,0,19.7,8.8,19.7,19.7v7.1v20.8c-9.1-3-16.5-10.2-19.7-19.7l-2.7-8.2h-21l-11.7,11.7
				c-5.1,5.1-11.9,7.9-19.2,7.9h-63.4V367.8z M331.1,397.4h63.4c12.5,0,24.2-4.9,33.1-13.7l5.3-5.3c6.9,14.5,20.3,24.7,36,27.8v1.1
				c0,19.2-7.7,37.1-21.8,50.3c-14,13.2-32.4,19.7-51.7,18.5c-36-2.3-64.3-33.7-64.3-71.4V397.4z M416.9,515.4l-4.9,19.7h-24
				l-4.9-19.7H416.9z M382.4,493.9c3.8,0.8,7.7,1.4,11.7,1.7c1.9,0.1,3.9,0.2,5.8,0.2h-16.7C383,495.1,382.7,494.5,382.4,493.9z
				 M416.7,495.7h-16.6c5.9,0,11.7-0.6,17.3-1.7C417.2,494.6,417,495.2,416.7,495.7z M313,421.3c2.4,13,7.5,25.1,14.6,35.6
				c-2.1-0.2-4.2-0.5-6.3-0.5h-78.5c22.6,0,43.8-8.4,60.4-23.9C306.8,429,310,425.3,313,421.3z M173.7,328.5
				c0-27.1,22.1-49.2,49.2-49.2h39.4c27.1,0,49.2,22.1,49.2,49.2v18.1c-9.1-3-16.5-10.2-19.7-19.7l-2.7-8.2h-21l-11.7,11.7
				c-5.1,5.1-11.9,7.9-19.2,7.9h-63.4V328.5z M238,436.6c-36-2.3-64.3-33.7-64.3-71.4V358h63.4c12.5,0,24.2-4.9,33.1-13.7l5.3-5.3
				c6.9,14.5,20.3,24.7,36,27.8v1.1c0,19.2-7.7,37.1-21.8,50.3C275.6,431.2,257.2,437.8,238,436.6z M270.3,476.1
				c-4.1,11.4-14.9,19.7-27.7,19.7s-23.6-8.3-27.7-19.7H270.3z M252.4,604h-78.7v-68.9H154V604h-39.4v-78.7
				c0-27.1,22.1-49.2,49.2-49.2h30.5c4.6,22.4,24.4,39.4,48.2,39.4s43.6-16.9,48.2-39.4h30.5c15.7,0,30.1,7.5,39.3,19.7h-39.3
				c-38,0-68.9,30.9-68.9,68.9V604z M331.1,643.3v-68.9h-19.7v68.9h-39.4v-78.7c0-27.1,22.1-49.2,49.2-49.2h41.5l7.5,30l-10.4,73.1
				l37.2,24.8H331.1z M381.1,609.1l7.8-54.3h22.3l7.8,54.3L400,621.7L381.1,609.1z M527.9,643.3h-39.4v-68.9h-19.7v68.9H403
				l37.2-24.8l-10.4-73.1l7.5-30h41.5c27.1,0,49.2,22.1,49.2,49.2V643.3z M685.3,604H646v-68.9h-19.7V604h-78.7v-39.4
				c0-38-30.9-68.9-68.9-68.9h-39.3c9.1-12.1,23.6-19.7,39.3-19.7h34.6l44.1,55.1l44.1-55.1h34.6c27.1,0,49.2,22.1,49.2,49.2V604z"
				/>
			<rect x="360.6" y="92.4" class="st0" width="177.1" height="19.7"/>
			<rect x="262.3" y="92.4" class="st0" width="78.7" height="19.7"/>
			<rect x="262.3" y="131.7" class="st0" width="275.5" height="19.7"/>
			<rect x="518.1" y="171.1" class="st0" width="19.7" height="19.7"/>
			<rect x="262.3" y="171.1" class="st0" width="236.1" height="19.7"/>
			<path class="st0" d="M252.4,230.1h111.4l19.7,49.2h33l19.7-49.2h111.4c16.3,0,29.5-13.2,29.5-29.5V82.5
				c0-16.3-13.2-29.5-29.5-29.5H252.4c-16.3,0-29.5,13.2-29.5,29.5v118.1C222.9,216.9,236.1,230.1,252.4,230.1z M242.6,82.5
				c0-5.4,4.4-9.8,9.8-9.8h295.2c5.4,0,9.8,4.4,9.8,9.8v118.1c0,5.4-4.4,9.8-9.8,9.8H422.9l-19.7,49.2h-6.4l-19.7-49.2H252.4
				c-5.4,0-9.8-4.4-9.8-9.8V82.5z"/>
		</g>
	</g>
</g>
</svg>
