<?xml version="1.0" encoding="utf-8"?>
<!-- Generator: Adobe Illustrator 26.5.0, SVG Export Plug-In . SVG Version: 6.00 Build 0)  -->
<svg version="1.1" id="Ebene_1" xmlns="http://www.w3.org/2000/svg" xmlns:xlink="http://www.w3.org/1999/xlink" x="0px" y="0px"
	 viewBox="0 0 1031.8 280.6" style="enable-background:new 0 0 1031.8 280.6;" xml:space="preserve">
<style type="text/css">
	.st0{fill:#892522;}
	.st1{fill:#DADADA;}
	.st2{fill:#9D9D9C;}
	.st3{fill:#575756;}
	.st4{fill:#C6C6C6;}
</style>
<polygon class="st0" points="0.6,-1 0.6,279.6 274.7,279.6 274.7,-1 0.6,-1 "/>
<path class="st1" d="M226.2,199.5l19.2,18.5c-40,44.2-120.6,55.9-173.9,6.6C-1.4,157.2,37.8,72.4,65.2,44l18.5,17.8
	c-18.4,19-54.6,83.5,6.9,142.9C129.5,242.4,194.1,235.1,226.2,199.5L226.2,199.5z"/>
<path class="st2" d="M99.2,189.1c-76.8-74.2,35.2-190.2,112-116l18.3-19C126.1-45.8-20.3,110,81.1,207.9L99.2,189.1L99.2,189.1z"/>
<path class="st3" d="M110.2,87.4c57.6-59,147.7,23.8,89.5,87.3l20.1,18.6c80.3-88.2-45.2-208.7-129.1-124.7L110.2,87.4L110.2,87.4z"
	/>
<path class="st2" d="M186.9,98.3c41.1,38.8-16.9,105-62.9,65.1l-18.7,19.3c71.7,64.4,167.9-37,99.5-103L186.9,98.3L186.9,98.3z"/>
<path class="st4" d="M174.2,149.3c-26.2,23.6-62.5-10.9-38-36.7l-19.4-18.7c-51,50.7,28.6,125.5,77.5,74.9L174.2,149.3L174.2,149.3z
	"/>
<g>
	<path class="st4" d="M330.6,211.8c-1.9-1-4-1.5-6.1-1.5c-3.3,0-7.6,1.4-7.6,5.4c0,5.3,11.7,6.1,11.7,14.4c0,6.3-6.4,9.2-11.9,9.2
		c-2.7,0-5.2-0.4-7.6-1.4l1.2-3.5c2.2,1.3,4.1,1.8,6.7,1.8c3.7,0,8.1-1.8,8.1-6.1c0-6.4-11.6-6.7-11.6-14.4c0-5.9,6-8.5,11.1-8.5
		c2.3,0,5.1,0.5,7.2,1.4L330.6,211.8z"/>
	<path class="st4" d="M356.6,244.4c-2.7,4.9-5.4,8.2-9.9,8.2c-1.3,0-1.7-0.1-2.9-0.4l1.1-3.2c0.8,0.3,1.5,0.6,2.4,0.6
		c2.4,0,4.6-2.4,5.8-4.6l2.8-5.3l-4.3-31.8h3.7l3.2,27.4l14.1-27.4h3.8L356.6,244.4z"/>
	<path class="st4" d="M410.5,211.8c-1.9-1-4-1.5-6.1-1.5c-3.3,0-7.6,1.4-7.6,5.4c0,5.3,11.7,6.1,11.7,14.4c0,6.3-6.4,9.2-11.9,9.2
		c-2.7,0-5.2-0.4-7.6-1.4l1.2-3.5c2.2,1.3,4.1,1.8,6.7,1.8c3.7,0,8.1-1.8,8.1-6.1c0-6.4-11.6-6.7-11.6-14.4c0-5.9,6-8.5,11.1-8.5
		c2.3,0,5.1,0.5,7.2,1.4L410.5,211.8z"/>
	<path class="st4" d="M447.2,210.8h-6.8l-4.1,18.9c-0.3,1.3-0.4,2.3-0.4,3.8c0,2,1.2,2.7,3,2.7c1.2,0,2.5-0.4,3.8-0.9l-0.3,3.2
		c-1.4,0.6-3,0.8-4.5,0.8c-3,0-5.3-1.9-5.3-5.4c0-1.7,0.1-3.1,0.5-4.7l4-18.3h-5.8l0.7-3h5.8l1.5-7.1l3.7-1.2l-1.7,8.3h6.8
		L447.2,210.8z"/>
	<path class="st4" d="M468.5,224.3c-0.5,1.4-0.7,3.3-0.7,4.8c0,4.6,2.5,7.1,7.1,7.1c2.7,0,5.9-0.7,8.2-2.2l0.5,3.2
		c-2.7,1.4-6.3,2-9.3,2c-6.1,0-10-3.5-10-9.8c0-11.5,9-22.2,18.3-22.2c4,0,7.4,2,7.4,6.3C490,223.6,476.6,224.3,468.5,224.3z
		 M481.7,210.1c-5.9,0-10.6,6.3-12.5,11.3c7.1,0,17.3-0.6,17.3-7.6C486.6,210.9,484.3,210.1,481.7,210.1z"/>
	<path class="st4" d="M551.2,217.3l-4.5,21.2h-3.4l4.3-20.6c0.2-0.9,0.3-1.9,0.3-2.8c0-3.3-1.7-4.9-5-4.9c-5.9,0-9.7,6.2-10.7,11.3
		l-3.5,17h-3.4l4.3-20.6c0.2-0.9,0.3-1.9,0.3-2.8c0-3.5-1.9-4.9-5.2-4.9c-5.9,0-9.5,6.3-10.5,11.3l-3.5,17h-3.4l4.9-23.5
		c0.5-2.4,1-4.8,1.2-7.3h3.1l-0.9,5.3c2.6-3.5,5.8-5.9,10.6-5.9c3.7,0,6.9,2.7,6.9,6.5c2.2-3.7,6.3-6.5,10.7-6.5
		c4.6,0,7.8,2.7,7.8,7.5C551.5,215.5,551.4,216.4,551.2,217.3z"/>
	<path class="st4" d="M623.8,210.8H617l-4.1,18.9c-0.3,1.3-0.4,2.3-0.4,3.8c0,2,1.2,2.7,3,2.7c1.2,0,2.5-0.4,3.8-0.9l-0.3,3.2
		c-1.4,0.6-3,0.8-4.5,0.8c-3,0-5.3-1.9-5.3-5.4c0-1.7,0.1-3.1,0.5-4.7l4-18.3h-5.8l0.7-3h5.8l1.5-7.1l3.7-1.2l-1.7,8.3h6.8
		L623.8,210.8z"/>
	<path class="st4" d="M645.1,224.3c-0.5,1.4-0.7,3.3-0.7,4.8c0,4.6,2.5,7.1,7.1,7.1c2.7,0,5.9-0.7,8.2-2.2l0.5,3.2
		c-2.7,1.4-6.3,2-9.3,2c-6.1,0-10-3.5-10-9.8c0-11.5,9-22.2,18.3-22.2c4,0,7.4,2,7.4,6.3C666.7,223.6,653.3,224.3,645.1,224.3z
		 M658.4,210.1c-5.9,0-10.6,6.3-12.5,11.3c7.1,0,17.3-0.6,17.3-7.6C663.2,210.9,660.9,210.1,658.4,210.1z"/>
	<path class="st4" d="M709.2,211.7c-2.1-1.1-4.5-1.4-6.8-1.4c-8.4,0-13.7,9-13.7,16.7c0,4.6,2.8,9.2,7.9,9.2c2.6,0,5.3-0.4,7.7-1.2
		l-0.4,3.3c-2.6,0.8-5.3,1-8.1,1c-6.3,0-10.6-5.1-10.6-11.2c0-10.7,6.6-20.9,18.1-20.9c2.2,0,4.9,0.5,6.9,1.2L709.2,211.7z"/>
	<path class="st4" d="M752.7,220.6l-3.8,18h-3.4l3.9-18.3c0.3-1.5,0.4-3,0.4-4.3c0-3.2-1.6-5.7-5.6-5.7c-6.9,0-10.1,5.6-11.4,11.9
		l-3.5,16.4H726l9.5-44.6h3.3l-4.2,19.1c2.8-3.8,6.2-5.8,10.8-5.8c4.8,0,8.2,3.1,8.2,7.7C753.5,216.9,753.3,217.4,752.7,220.6z"/>
	<path class="st4" d="M799.5,218.9l-4.1,19.6H792l3.9-18.7c0.3-1.4,0.6-2.7,0.6-3.9c0-3.2-1.5-5.7-5.8-5.7c-6.6,0-9.9,5.6-11.1,11.3
		l-3.6,17h-3.4l4.9-23.5c0.5-2.4,1-4.9,1.2-7.3h3l-0.9,5.5c3-3.9,5.9-6.1,10.9-6.1c5,0,8.2,3.2,8.2,8
		C799.9,216.3,799.8,217.6,799.5,218.9z"/>
	<path class="st4" d="M831.1,239.2c-6.2,0-10.8-4.8-10.8-11c0-10.5,5.9-21.1,17.5-21.1c6.2,0,10.8,4.8,10.8,11
		C848.6,228.3,842.4,239.2,831.1,239.2z M836.7,210.2c-8.3,0-12.9,9.4-12.9,16.7c0,5.4,2.2,9.2,8.1,9.2c8.1,0,13.3-9.5,13.3-16.7
		C845.2,214,842.5,210.2,836.7,210.2z"/>
	<path class="st4" d="M870.6,238.5h-3.4l9.5-44.6h3.4L870.6,238.5z"/>
	<path class="st4" d="M907.5,239.2c-6.2,0-10.8-4.8-10.8-11c0-10.5,5.9-21.1,17.5-21.1c6.2,0,10.8,4.8,10.8,11
		C925.1,228.3,918.9,239.2,907.5,239.2z M913.2,210.2c-8.3,0-12.9,9.4-12.9,16.7c0,5.4,2.2,9.2,8.1,9.2c8.1,0,13.3-9.5,13.3-16.7
		C921.6,214,918.9,210.2,913.2,210.2z"/>
	<path class="st4" d="M966.9,236.7c-2.2,10-5.8,15.9-17,15.9c-2.9,0-5.8-0.6-8.5-1.6l1-3.4c2.4,1.4,5.4,1.9,8.2,1.9
		c7.5,0,10.8-4.6,12.4-11.4l1.3-5.4c-3,4.2-6,5.9-11.3,5.9c-5.3,0-8.1-3.9-8.1-8.9c0-11.6,9.4-22.5,21.4-22.5c2.4,0,4.6,0.5,7,0.9
		L966.9,236.7z M965.6,210.2c-9.8,0-17.2,10-17.2,19.1c0,3.6,1.4,6.1,5.4,6.1c7.9,0,11.7-8.5,13-14l2.5-10.7
		C968.1,210.4,967,210.2,965.6,210.2z"/>
	<path class="st4" d="M998.7,244.4c-2.7,4.9-5.4,8.2-9.9,8.2c-1.3,0-1.7-0.1-2.9-0.4l1.1-3.2c0.8,0.3,1.5,0.6,2.4,0.6
		c2.4,0,4.6-2.4,5.8-4.6l2.8-5.3l-4.3-31.8h3.7l3.2,27.4l14.1-27.4h3.8L998.7,244.4z"/>
</g>
<g>
	<path class="st2" d="M336.2,53.5c-10.2,14.5-15.3,32.8-15.3,55c0,5.2,0.6,12.6,1.8,22.2c1.2,9.5,4.8,19.3,10.8,29.5
		c-16.3-12.7-24.4-30.1-24.4-52c0-13.5,2.7-24.8,8.2-34C322.6,65.2,328.9,58.3,336.2,53.5z M418.5,105.3v63.6
		c-13.3,5.4-24.8,8.2-34.4,8.2c-16.3,0-29.4-5.4-39.3-16.1c-4.9-5.4-8.6-12.3-11.1-20.6c-2.5-8.3-3.7-17.9-3.7-28.9
		c0-47.9,20.1-71.9,60.2-71.9c14.7,0,29,2.5,42.8,7.4c0,7.8,0.1,13.8,0.4,18c0.3,3.6,0.4,8,0.4,13.2h-2.5c-2-9-6.7-16.2-14.2-21.4
		c-7.6-5.2-16.7-7.8-27.3-7.8c-32.6,0-48.9,19.6-48.9,58.7c0,39.7,13.9,59.6,41.6,59.6c11.1,0,18.9-2.6,23.5-7.9
		c1.5-2.8,2.3-7.9,2.3-15.3v-17c0-12.1-4.4-19.1-13.3-21v-2.3c3.1,0.2,7.4,0.4,12.9,0.8C412.1,104.9,415.6,105.1,418.5,105.3z
		 M427.8,165.9v-60.6c4-0.2,7.7-0.4,11.1-0.8c5.4-0.5,9-0.8,10.7-0.8v2.3c-7.6,3.1-11.4,11.3-11.4,24.6v31.9
		c-0.6,0.1-2.2,0.6-4.9,1.5c-1.3,0.3-2.4,0.7-3.3,1C429.1,165.4,428.4,165.7,427.8,165.9z"/>
</g>
<g>
	<path class="st4" d="M479,128.7c-5.3,6.6-7.9,13.9-7.9,21.7c0,9.3,3.3,16.9,9.8,22.9c-5.1-1.2-9.6-3.7-13.6-7.7
		c-4.1-3.9-6.2-8.9-6.2-15.1C461.2,139.7,467.1,132.4,479,128.7z M518.1,124.4v-13.3c0-6-1.2-10.8-3.6-14.2c-2.5-3.3-7.4-5-14.6-5
		c-11.2,0-20.7,4.2-28.4,12.7l-3.1-3c3.1-5.3,8-9.6,14.7-13.1c6.7-3.3,13.7-4.9,20.9-4.9c15.7,0,23.5,8.5,23.5,25.6v65.3
		c-3.9,0.2-7.1,0.7-9.7,1.5l0.4-6.7c-4.2,4.4-9.2,6.7-15,6.7c-6.6,0-12.1-2.6-16.6-7.8c-4.5-5.2-6.8-11.1-6.8-17.6
		c0-7.5,2.8-14,8.3-19.3c5.4-5.4,12.5-8,21.5-8C512.4,123.3,515.3,123.6,518.1,124.4z M518.1,164.1v-32.8c-2.8-0.3-5.1-0.5-7-0.5
		c-6.6,0-11.8,2-15.5,6c-3.7,4.1-5.5,8.8-5.5,14.1c0,4.8,1.5,8.8,4.6,12.2c3.2,3.5,7,5.3,11.6,5.3
		C510.3,168.4,514.2,167,518.1,164.1z M559.8,176l-24.1-1.5v-65.2c0-6.6-0.6-11.5-1.9-14.6c-1.4-3.2-3.9-5.9-7.4-8.2
		c7.3,1.4,12.2,4,14.8,7.8c2.6,3.9,3.9,10.8,3.9,20.7v38.8c0,6.6,0.9,11.4,2.8,14.2c1.8,2.8,5.7,4.7,11.9,5.7V176z"/>
	<path class="st4" d="M592.9,22.6v119.9c0,11.4,0.6,18.8,1.9,22.4c1.3,3.6,3.3,7.2,6,10.7c-4.6-1.3-8.2-3.5-10.7-6.4
		c-2.5-2.8-4.2-6.5-5.2-11.2c-0.8-4.2-1.3-11.6-1.3-22.4V51.4c0-7.6-0.3-12.8-0.9-15.5c-0.7-3-2.2-5.7-4.5-8
		c-2.3-2.3-5.4-3.9-9.2-4.5v-2.1c2.6,0,6.6,0.3,11.9,0.8C583.7,22.3,587.7,22.5,592.9,22.6z M633.8,169.8l0.6,2.6
		c-3.9,3.1-8.3,4.6-13.2,4.6c-6.9,0-11.9-2.6-15.2-7.9c-3.3-5.2-4.9-14-4.9-26.5v-120c5-0.2,8.6-0.4,10.7-0.6
		c-0.9,14.3-1.4,24.6-1.4,30.9v84.2c0,10.3,0.3,17.3,0.8,21.1c0.5,3.9,2.1,7,4.6,9.3c2.5,2.5,6,3.8,10.6,3.8
		C628.8,171.3,631.3,170.8,633.8,169.8z"/>
	<path class="st4" d="M660.5,43.1l17.7,16.5l-6,6.3l-17.6-16.3L660.5,43.1z M655.6,143.2V85h9.4v62.7c0,9.2,0.9,15.8,2.8,19.7
		c1.8,4.1,4.7,7,8.8,8.8h-3.9c-5.6-2.5-9.9-6-12.8-10.6C657,161.2,655.6,153.7,655.6,143.2z M672.1,30.5L689.7,47l-5.9,6.3L666.1,37
		L672.1,30.5z M673.3,145.4V85h9.4v62.3c0,15.2,5.3,22.9,16,22.9c3.4,0,6.2-0.7,8.4-2v2.8c-4.3,3.5-9,5.3-14.1,5.3
		c-4.7,0-8.6-1.4-11.8-4.3c-3.4-2.9-5.6-6.2-6.4-9.7C673.8,158.7,673.3,153.1,673.3,145.4z"/>
	<path class="st4" d="M737.6,22.6v119.9c0,11.4,0.6,18.8,1.9,22.4c1.3,3.6,3.3,7.2,6,10.7c-4.6-1.3-8.2-3.5-10.7-6.4
		c-2.5-2.8-4.2-6.5-5.2-11.2c-0.8-4.2-1.3-11.6-1.3-22.4V51.4c0-7.6-0.3-12.8-0.9-15.5c-0.7-3-2.2-5.7-4.5-8
		c-2.3-2.3-5.4-3.9-9.2-4.5v-2.1c2.6,0,6.6,0.3,11.9,0.8C728.5,22.3,732.4,22.5,737.6,22.6z M778.6,169.8l0.6,2.6
		c-3.9,3.1-8.3,4.6-13.2,4.6c-6.9,0-11.9-2.6-15.2-7.9c-3.3-5.2-4.9-14-4.9-26.5v-120c5-0.2,8.6-0.4,10.7-0.6
		c-0.9,14.3-1.4,24.6-1.4,30.9v84.2c0,10.3,0.3,17.3,0.8,21.1c0.5,3.9,2.1,7,4.6,9.3c2.5,2.5,6,3.8,10.6,3.8
		C773.6,171.3,776,170.8,778.6,169.8z"/>
	<path class="st4" d="M808.5,164.5l-0.5,0.8c-12.6-7.3-19-18.7-19-34.3c0-6,1.1-11.9,3.4-17.5c2.3-5.6,7-11.3,14.2-17l0.6,0.6
		c-5.3,9.1-7.9,20.1-7.9,32.9C799.3,143.4,802.3,154.8,808.5,164.5z M876.8,124.2h-58.3c-0.2,4.2-0.3,6.7-0.3,7.7
		c0,10.9,3,19.6,8.9,26.3c5.9,6.5,13.7,9.8,23.2,9.8c7.9,0,15-2.1,21.4-6.4c6.4-4.3,11.4-10,15.1-17.2h5.4c-7.7,22-22.4,33-44,33
		c-13,0-23-4.5-30-13.6c-7-9-10.6-20.3-10.6-34c0-13.2,3.3-24.2,9.8-33c6.4-8.7,14.9-13.1,25.3-13.1c8.4,0,15.7,3.1,22.1,9.4
		C871.1,99.2,875.1,109.6,876.8,124.2z M819.5,114.9h44.7c-0.4-6-2.4-11.4-5.9-16.1c-3.7-4.7-9-7-15.8-7c-6.1,0-11.3,2.1-15.5,6.4
		C822.9,102.4,820.3,108,819.5,114.9z M896.3,124.2h-11.2c-0.4-15.2-4.4-26.4-11.9-33.5C886.6,96.2,894.3,107.4,896.3,124.2z"/>
	<path class="st4" d="M931.6,91.2c-7.8,8.6-11.7,21.4-11.7,38.2c0,16.8,3.9,29.7,11.7,38.7c-14.5-8.2-21.7-21.3-21.7-39.2
		C909.8,111.3,917.1,98.7,931.6,91.2z M928.4,130.7c0-16.2,3.3-28.4,9.9-36.3c6.7-8,15.9-12.1,27.6-12.1c10.9,0,19.9,3.6,27,10.7
		c7.1,7.1,10.7,18.9,10.7,35.3c0,18-3.8,30.6-11.4,37.7c-7.7,7.2-16.6,10.8-26.6,10.8c-10.3,0-19.1-3.8-26.3-11.3
		C932.1,158,928.4,146.4,928.4,130.7z M939,128.7c0,15.3,2.3,25.7,7,31.2c4.7,5.4,11.3,8.2,20,8.2c8.1,0,14.7-2.8,19.7-8.5
		c4.9-5.7,7.4-16.1,7.4-31.2c0-25.4-9-38.1-27.1-38.1C948,90.2,939,103,939,128.7z M1000.7,166.7c7.7-8.6,11.6-20.6,11.6-35.9
		c0-8.3-0.9-16.1-2.8-23.4c-1.9-7.5-4.9-12.9-8.8-16.3c14.7,8.1,22,20.6,22,37.4C1022.7,144.7,1015.3,157.4,1000.7,166.7z"/>
</g>
</svg>
