<?xml version="1.0" encoding="utf-8"?>
<!-- Generator: Adobe Illustrator 28.2.0, SVG Export Plug-In . SVG Version: 6.00 Build 0)  -->
<svg version="1.1" id="Ebene_1" xmlns="http://www.w3.org/2000/svg" xmlns:xlink="http://www.w3.org/1999/xlink" x="0px" y="0px"
	 viewBox="0 0 800 800" style="enable-background:new 0 0 800 800;" xml:space="preserve">
<style type="text/css">
	.st0{fill:#0452ac;}
</style>
<path class="st0" d="M616.7,733.3c-74.2,0-146.3-14.5-214.1-43.2c-65.5-27.7-124.3-67.4-174.8-117.9
	c-50.5-50.5-90.2-109.3-117.9-174.8c-28.7-67.8-43.2-139.9-43.2-214.1c0-13.6,0.5-27.2,1.5-40.7c1.2-17,2.1-29.4,9.8-42.6
	c6.5-11.3,17-21.1,28.8-26.8c13.7-6.6,27-6.6,45.3-6.6H246c15.9,0,26.4,0,37.9,4.4c10.2,3.9,19.3,10.3,26.4,18.5
	c8.1,9.3,11.7,19.2,17.1,34.1l38.9,106.9c6.3,17.3,10.4,28.7,9.5,42.6c-0.8,12.3-5,24.2-12.1,34.2c-8.1,11.4-18.5,17.7-34.2,27.1
	L310.3,346c16.6,29.9,37.3,57.4,61.8,81.9c24.5,24.5,52,45.2,81.8,61.8l11.5-19.1c9.4-15.7,15.7-26.1,27.1-34.2
	c10.1-7.1,21.9-11.3,34.2-12.1c13.9-0.9,25.3,3.2,42.6,9.5l106.9,38.9c14.9,5.4,24.8,9,34.1,17.1c8.2,7.1,14.6,16.3,18.5,26.4
	c4.4,11.5,4.4,22,4.4,37.9v93.9c0,18.4,0,31.6-6.6,45.4c-5.7,11.8-15.4,22.3-26.8,28.8c-13.2,7.6-25.5,8.5-42.5,9.7
	C643.9,732.8,630.2,733.3,616.7,733.3z M135.9,133.6c-0.5,2.9-0.9,8.7-1.3,13.9c-0.9,11.9-1.3,23.9-1.3,35.8
	c0,65.3,12.8,128.6,38,188.1c24.3,57.6,59.2,109.2,103.6,153.6c44.4,44.4,96.1,79.3,153.6,103.6c59.6,25.2,122.9,38,188.1,38
	c12,0,24-0.4,35.8-1.3c5.2-0.4,10.9-0.8,13.9-1.3c0.3-3.4,0.3-10.1,0.3-16.2V554c0-5.4,0-11-0.2-13.9c-2.6-1.2-7.8-3.1-12.9-4.9
	l-106.9-38.9c-6-2.2-12.2-4.4-15.4-5.3c-1.9,2.7-5.3,8.3-8.6,13.8l-27.4,45.6c-8.7,14.5-26.9,20.2-42.3,13.2
	c-47.6-21.6-90.6-51.4-127.9-88.7c-37.2-37.2-67.1-80.3-88.7-127.9c-7-15.4-1.3-33.6,13.2-42.4l45.6-27.4c5.5-3.3,11.1-6.7,13.8-8.6
	c-0.9-3.2-3.1-9.4-5.3-15.4l-38.9-106.9c-1.9-5.1-3.8-10.4-4.9-13c-2.8-0.2-8.4-0.2-13.9-0.2h-93.9
	C146,133.3,139.3,133.3,135.9,133.6z M666.2,665.7C666.2,665.7,666.2,665.7,666.2,665.7C666.2,665.7,666.2,665.7,666.2,665.7z
	 M666.3,664.6C666.3,664.6,666.3,664.6,666.3,664.6C666.3,664.6,666.3,664.6,666.3,664.6z M666.9,663.9
	C666.9,663.9,666.9,663.9,666.9,663.9C666.9,663.9,666.9,663.9,666.9,663.9z M667.6,540.8C667.6,540.8,667.7,540.8,667.6,540.8
	C667.7,540.8,667.6,540.8,667.6,540.8z M666.3,538.8C666.3,538.8,666.3,538.8,666.3,538.8C666.3,538.9,666.3,538.8,666.3,538.8z
	 M529.7,490.7C529.7,490.7,529.7,490.7,529.7,490.7C529.7,490.7,529.7,490.7,529.7,490.7z M309.3,270.3
	C309.3,270.3,309.3,270.3,309.3,270.3C309.3,270.3,309.3,270.3,309.3,270.3z M310.2,267.8C310.2,267.8,310.2,267.8,310.2,267.8
	C310.2,267.8,310.2,267.8,310.2,267.8z M134.3,133.8C134.3,133.8,134.3,133.8,134.3,133.8C134.3,133.8,134.3,133.8,134.3,133.8z
	 M135.4,133.7C135.4,133.7,135.4,133.7,135.4,133.7C135.4,133.7,135.4,133.7,135.4,133.7z M136.1,133.1
	C136.1,133.1,136.1,133.1,136.1,133.1C136.1,133.1,136.1,133.1,136.1,133.1z M600,333.3c-18.4,0-33.3-14.9-33.3-33.3v-66.7H500
	c-18.4,0-33.3-14.9-33.3-33.3s14.9-33.3,33.3-33.3h66.7V100c0-18.4,14.9-33.3,33.3-33.3s33.3,14.9,33.3,33.3v66.7H700
	c18.4,0,33.3,14.9,33.3,33.3s-14.9,33.3-33.3,33.3h-66.7V300C633.3,318.4,618.4,333.3,600,333.3z"/>
</svg>
