<?xml version="1.0" encoding="utf-8"?>
<!-- Generator: Adobe Illustrator 28.2.0, SVG Export Plug-In . SVG Version: 6.00 Build 0)  -->
<svg version="1.1" id="Ebene_1" xmlns="http://www.w3.org/2000/svg" xmlns:xlink="http://www.w3.org/1999/xlink" x="0px" y="0px"
	 viewBox="0 0 800 800" style="enable-background:new 0 0 800 800;" xml:space="preserve">
<style type="text/css">
	.st0{fill:#0452ac;}
</style>
<path class="st0" d="M778.2,576.8c-3-18.6-9.1-35.2-18-50.1l0.3,0.6c-4.7-7.7-12.5-13.2-21.7-14.7l-0.2,0L514.5,477
	c-1.4-0.2-3-0.3-4.6-0.3c-8.7,0-16.6,3.5-22.4,9.1l0,0c-15.1,15.2-27.4,33.3-35.7,53.5l-0.4,1.1c-87.7-39.3-156.3-108-194.6-193.2
	l-1-2.4c21.2-8.8,39.3-21,54.6-36.1l0,0c5.6-5.6,9.1-13.5,9.1-22.1c0-1.7-0.1-3.4-0.4-5.1l0,0.2L283.5,57.3
	c-1.5-9.4-7-17.2-14.7-21.8l-0.1-0.1C255,27.2,239.1,21.2,222,18.3l-0.8-0.1c-8.7-2-18.8-3.1-29-3.1c-0.6,0-1.2,0-1.8,0h0.1h-0.2
	c-94.3,0.7-170.5,77-171.1,171.3v0.1c0.4,325.9,264.5,590,590.4,590.4h0c94.4-0.5,170.8-76.9,171.4-171.2v-0.1c0-0.7,0-1.6,0-2.4
	c0-9.3-1-18.4-2.8-27.2L778.2,576.8L778.2,576.8z M609.6,714.4C318.1,714.1,82,477.9,81.7,186.5v0c0.5-60,49-108.4,109-108.9h0
	c0.3,0,0.6,0,0.9,0c6.2,0,12.3,0.7,18.2,2l-0.6-0.1c5.8,1,10.9,2.3,15.9,4.1l-0.6-0.2l30.2,190.8c-12.9,9.5-28.4,16.3-45.2,19.2
	l-0.7,0.1c-14.8,2.7-25.8,15.5-25.8,30.8c0,3.6,0.6,7.1,1.8,10.4l-0.1-0.2c45.6,130.4,146.5,231.3,273.8,276l3.1,1
	c3,1.1,6.5,1.7,10.2,1.7c5.9,0,11.3-1.6,16-4.3l-0.2,0.1c7.8-4.6,13.3-12.3,14.9-21.3l0-0.2c3-17.5,9.8-32.9,19.5-46.2l-0.2,0.3
	l190.8,30.3c1.7,4.8,3.2,10.6,4.2,16.6l0.1,0.6c0.9,4.4,1.4,9.5,1.4,14.7c0,0.6,0,1.2,0,1.8v-0.1C718.1,665.4,669.6,714,609.6,714.4
	L609.6,714.4L609.6,714.4z"/>
</svg>
