<?xml version="1.0" encoding="utf-8"?>
<!-- Generator: Adobe Illustrator 28.3.0, SVG Export Plug-In . SVG Version: 6.00 Build 0)  -->
<svg version="1.1" id="Ebene_1" xmlns="http://www.w3.org/2000/svg" xmlns:xlink="http://www.w3.org/1999/xlink" x="0px" y="0px"
	 viewBox="0 0 1179 1036" style="enable-background:new 0 0 1179 1036;" xml:space="preserve">
<style type="text/css">
	.st0{fill:none;stroke:#0F36B2;stroke-width:5;stroke-miterlimit:10;}
	.st1{fill:#3DB6F9;}
	.st2{fill:#0071AF;}
	.st3{fill:#868787;}
	.st4{fill:#75BBEA;}
	.st5{fill:#0F36B2;}
	.st6{fill:#F6FEFF;}
	.st7{fill:none;stroke:#FC6A33;stroke-width:8;stroke-miterlimit:10;}
	.st8{fill:none;stroke:#FC6A33;stroke-width:8;stroke-linecap:round;stroke-linejoin:round;stroke-miterlimit:10;}
	.st9{fill:#1B3E62;}
	.st10{fill:#F96B6B;}
	.st11{enable-background:new    ;}
	.st12{fill:#FFFFFF;}
	.st13{fill:#04017A;}
	.st14{fill:#888989;}
</style>
<g>
	<path class="st0" d="M988.8,507c0,0,76.8,216.7-117,243.8"/>
	<g>
		<path class="st1" d="M836.9,780.4c-18-18-18-47.2,0-65.3c18-18,47.2-18,65.3,0c18,18,18,47.2,0,65.3S855,798.5,836.9,780.4z"/>
	</g>
	<path class="st2" d="M970.3,459c-1.3,15.2,5.9,30.9,25,36c24.4,6.7,40.9-11.3,43.4-30.7c8.5,11.1,12,25.9,8,40.4
		c-6.7,24.6-32.2,39.2-56.8,32.4c-24.6-6.7-39.2-32.2-32.4-56.8C959.8,471.9,964.4,464.6,970.3,459z"/>
	<path class="st3" d="M963.5,447.8l112.1,94.9c14.3-8.4,26.7-6.1,36.3,2c9.1,7.7,13,19.2,14,26.9l-23-19.5l-23.6,27.8l24.1,20.4
		c-10.8,4.5-23.6,2.3-33.5-6.1c-10.5-8.9-15.3-21.6-8.8-36.6l-110-93.1c-13.8,8.8-27,6.2-37.6-2.7c-9.9-8.4-14.2-20.7-11.5-32
		l22.3,18.9L948,421l-21.2-18c7.7-0.3,19.7,1.6,28.9,9.3C965.2,420.5,969.4,432.4,963.5,447.8z"/>
	<path class="st2" d="M980.7,487.2c1.1,1.6,2.4,3,3.8,4.4c1.1,1.4,2.2,2.8,3.3,4.1c0.3,0.4,0.7,0.8,1,1.2
		c5.6,14.9,20.7,27.5,32.4,37.8c-9.5,4.3-20.5,5.5-31.3,2.5c-24.6-6.7-39.2-32.2-32.4-56.8c2.3-8.5,6.9-15.7,12.9-21.4
		C969.4,469.3,972.6,479.8,980.7,487.2z"/>
</g>
<path class="st0" d="M196.5,507c0,0-76.8,216.7,117,243.8"/>
<g>
	<path class="st1" d="M348.4,780.4c18-18,18-47.2,0-65.3c-18-18-47.2-18-65.3,0c-18,18-18,47.2,0,65.3
		C301.2,798.5,330.4,798.5,348.4,780.4z"/>
</g>
<path class="st2" d="M215,459c1.4,15.2-5.9,30.9-25,36c-24.4,6.7-40.9-11.3-43.4-30.7c-8.5,11.1-12,25.9-8,40.4
	c6.7,24.6,32.2,39.2,56.8,32.4c24.6-6.7,39.2-32.2,32.4-56.8C225.5,471.9,221,464.6,215,459z"/>
<g>
	<g>
		<path class="st1" d="M372.5,658.7c0,3.1-2.5,5.7-5.7,5.7s-5.7-2.5-5.7-5.7c0-3.1,2.5-5.7,5.7-5.7S372.5,655.5,372.5,658.7z"/>
		<path class="st1" d="M399.6,658.7c0,3.1-2.5,5.7-5.7,5.7c-3.1,0-5.7-2.5-5.7-5.7c0-3.1,2.5-5.7,5.7-5.7
			C397,653,399.6,655.5,399.6,658.7z"/>
		<circle class="st1" cx="421" cy="658.7" r="5.7"/>
	</g>
	<g>
		<circle class="st4" cx="763.9" cy="658.7" r="5.7"/>
		<path class="st4" d="M796.6,658.7c0,3.1-2.5,5.7-5.7,5.7c-3.1,0-5.7-2.5-5.7-5.7c0-3.1,2.5-5.7,5.7-5.7S796.6,655.5,796.6,658.7z"
			/>
		<path class="st4" d="M823.7,658.7c0,3.1-2.5,5.7-5.7,5.7c-3.1,0-5.7-2.5-5.7-5.7c0-3.1,2.5-5.7,5.7-5.7S823.7,655.5,823.7,658.7z"
			/>
	</g>
	<g>
		<g>
			<path class="st0" d="M533.9,935.3c0,0-83.6-127.7-15.5-187.9"/>
			<path class="st1" d="M579.5,965.1l-35.9-66.5h-74l15.7,33.3c0,0-81.6-8.3-81.6,33.3L579.5,965.1L579.5,965.1z"/>
		</g>
		<g>
			<path class="st0" d="M666.2,935.3c0,0,83.6-127.7,15.5-187.9"/>
			<path class="st1" d="M620.7,965.1l35.9-66.5h74l-15.7,33.3c0,0,81.6-8.3,81.6,33.3L620.7,965.1L620.7,965.1z"/>
		</g>
	</g>
	<g>
		<g>
			<rect x="436.5" y="407.9" class="st1" width="58.2" height="24.9"/>
			<rect x="415.7" y="391.3" class="st1" width="20.8" height="54.1"/>
		</g>
		<g>
			<path class="st2" d="M727.6,687.1c0,73.2-59.3,132.5-132.5,132.5H594c-73.2,0-132.5-59.3-132.5-132.5V357.5
				c0-73.2,59.3-132.5,132.5-132.5h1.1c73.2,0,132.5,59.3,132.5,132.5V687.1z"/>
			<polygon class="st5" points="836.1,644.9 593.9,644.9 351.7,644.9 299.9,744.5 361.7,844.5 593.9,844.5 826.1,844.5 887.9,744.5 
							"/>
			<g>
				<path class="st6" d="M564.6,705.7v13.1c0,5,4,9,9,9s9-4,9-9v-13.1H564.6z"/>
				<g>
					<path class="st6" d="M438.2,705.7v13.1c0,5,4,9,9,9s9-4,9-9v-13.1H438.2z"/>
					<path class="st6" d="M456.3,705.7v13.1c0,5,4,9,9,9s9-4,9-9v-13.1H456.3z"/>
					<path class="st6" d="M474.3,705.7v13.1c0,5,4,9,9,9s9-4,9-9v-13.1H474.3z"/>
					<path class="st6" d="M492.4,705.7v13.1c0,5,4,9,9,9s9-4,9-9v-13.1H492.4z"/>
					<path class="st6" d="M510.4,705.7v13.1c0,5,4,9,9,9s9-4,9-9v-13.1H510.4z"/>
					<path class="st6" d="M528.5,705.7v13.1c0,5,4,9,9,9s9-4,9-9v-13.1H528.5z"/>
					<path class="st6" d="M546.5,705.7v13.1c0,5,4,9,9,9s9-4,9-9v-13.1H546.5z"/>
					<path class="st6" d="M582.6,705.7v13.1c0,5,4,9,9,9s9-4,9-9v-13.1H582.6z"/>
					<path class="st6" d="M600.7,705.7v13.1c0,5,4,9,9,9s9-4,9-9v-13.1H600.7z"/>
					<path class="st6" d="M618.7,705.7v13.1c0,5,4,9,9,9s9-4,9-9v-13.1H618.7z"/>
					<path class="st6" d="M636.7,705.7v13.1c0,5,4,9,9,9s9-4,9-9v-13.1H636.7z"/>
					<path class="st6" d="M654.8,705.7v13.1c0,5,4,9,9,9s9-4,9-9v-13.1H654.8z"/>
					<path class="st6" d="M672.8,705.7v13.1c0,5,4,9,9,9s9-4,9-9v-13.1H672.8z"/>
					<path class="st6" d="M690.9,705.7v13.1c0,5,4,9,9,9s9-4,9-9v-13.1H690.9z"/>
					<path class="st6" d="M708.9,705.7v13.1c0,5,4,9,9,9s9-4,9-9v-13.1H708.9z"/>
				</g>
			</g>
			<g>
				<path class="st6" d="M600.7,781v-13.1c0-5-4-9-9-9s-9,4-9,9V781H600.7z"/>
				<g>
					<path class="st6" d="M727,781v-13.1c0-5-4-9-9-9s-9,4-9,9V781H727z"/>
					<path class="st6" d="M708.9,781v-13.1c0-5-4-9-9-9s-9,4-9,9V781H708.9z"/>
					<path class="st6" d="M690.9,781v-13.1c0-5-4-9-9-9s-9,4-9,9V781H690.9z"/>
					<path class="st6" d="M672.8,781v-13.1c0-5-4-9-9-9s-9,4-9,9V781H672.8z"/>
					<path class="st6" d="M654.8,781v-13.1c0-5-4-9-9-9s-9,4-9,9V781H654.8z"/>
					<path class="st6" d="M636.7,781v-13.1c0-5-4-9-9-9s-9,4-9,9V781H636.7z"/>
					<path class="st6" d="M618.7,781v-13.1c0-5-4-9-9-9s-9,4-9,9V781H618.7z"/>
					<path class="st6" d="M582.6,781v-13.1c0-5-4-9-9-9s-9,4-9,9V781H582.6z"/>
					<path class="st6" d="M564.6,781v-13.1c0-5-4-9-9-9s-9,4-9,9V781H564.6z"/>
					<path class="st6" d="M546.5,781v-13.1c0-5-4-9-9-9s-9,4-9,9V781H546.5z"/>
					<path class="st6" d="M528.5,781v-13.1c0-5-4-9-9-9s-9,4-9,9V781H528.5z"/>
					<path class="st6" d="M510.4,781v-13.1c0-5-4-9-9-9s-9,4-9,9V781H510.4z"/>
					<path class="st6" d="M492.4,781v-13.1c0-5-4-9-9-9s-9,4-9,9V781H492.4z"/>
					<path class="st6" d="M474.3,781v-13.1c0-5-4-9-9-9s-9,4-9,9V781H474.3z"/>
					<path class="st6" d="M456.3,781v-13.1c0-5-4-9-9-9s-9,4-9,9V781H456.3z"/>
				</g>
			</g>
			<path class="st7" d="M744.2,745.7c0,22.4-18.2,40.6-40.6,40.6H456.3c-22.4,0-40.6-18.2-40.6-40.6v-1.9
				c0-22.4,18.2-40.6,40.6-40.6h247.3c22.4,0,40.6,18.2,40.6,40.6L744.2,745.7L744.2,745.7z"/>
			<path class="st8" d="M378.2,710.7c0,0-11.4,15.3-11.4,32.1s11.4,33.5,11.4,33.5"/>
			<path class="st8" d="M787,710.7c0,0,11.4,15.3,11.4,32.1S787,776.3,787,776.3"/>
			<g>
				<g>
					<path class="st6" d="M587.5,530.5c0,27.6-22.4,50-50,50c-27.6,0-50-22.4-50-50c0-27.6,22.4-50,50-50
						C565.1,480.5,587.5,502.9,587.5,530.5z"/>
					<path class="st9" d="M550.2,530.5c0,7-5.7,12.7-12.7,12.7s-12.7-5.7-12.7-12.7s5.7-12.7,12.7-12.7S550.2,523.5,550.2,530.5z"/>
				</g>
				<g>
					<path class="st6" d="M695.8,530.5c0,27.6-22.4,50-50,50s-50-22.4-50-50c0-27.6,22.4-50,50-50
						C673.4,480.5,695.8,502.9,695.8,530.5z"/>
					<path class="st9" d="M658.5,530.5c0,7-5.7,12.7-12.7,12.7s-12.7-5.7-12.7-12.7s5.7-12.7,12.7-12.7S658.5,523.5,658.5,530.5z"/>
				</g>
			</g>
		</g>
		<g>
			<path class="st5" d="M726.7,423.6v-64.4c0-73.5-59.6-133.1-133.1-133.1s-133.1,59.6-133.1,133.1v64.4H726.7z"/>
			<g>
				<path class="st6" d="M609.3,423.6c-4.2-1.1-8.6-1.8-13.1-1.8s-8.9,0.7-13.1,1.8H609.3z"/>
			</g>
		</g>
		<g>
			<g>
				
					<rect x="866.7" y="476.7" transform="matrix(0.5855 -0.8107 0.8107 0.5855 -43.5115 922.413)" class="st4" width="27.1" height="54.1"/>
				
					<rect x="884.3" y="514.9" transform="matrix(0.5856 -0.8106 0.8106 0.5856 -48.898 956.8478)" class="st4" width="54.1" height="22.6"/>
			</g>
			<g>
				<path class="st4" d="M786.2,462c5,5.8,8.3,12.5,10.8,20"/>
			</g>
			<g>
				<path class="st4" d="M804.6,414.4c10,8.3,22.5-5,26.7-14.2"/>
			</g>
			<g>
				<path class="st4" d="M798.7,437.8c10.8,2.5,20.8,9.2,27.5,18.3"/>
			</g>
		</g>
	</g>
	<path class="st4" d="M559.8,297.3c-14.5,16-34.1,22-43.8,13.3c-9.6-8.7-5.6-28.8,8.9-44.8c14.6-16,34.1-22,43.8-13.3
		C578.3,261.2,574.3,281.3,559.8,297.3z"/>
	<path class="st4" d="M513.8,350.9c-5.7,15.2-17.8,24.8-26.9,21.4s-11.9-18.6-6.2-33.8c5.7-15.2,17.8-24.8,26.9-21.4
		C516.7,320.5,519.5,335.6,513.8,350.9z"/>
</g>
<g>
	<path class="st10" d="M849.7,4.9c-59.7,0-108,48.3-108,108c0,35.9,17.6,67.8,44.6,87.4l-2.8,59.3l38.9-42.2
		c8.7,2.3,17.8,3.5,27.2,3.5c59.6,0,108-48.3,108-108C957.7,53.3,909.4,4.9,849.7,4.9z"/>
	<g class="st11">
		<path class="st12" d="M838,135.4v-5.3c0-4.6,1-8.5,2.9-11.9c2-3.4,5.5-7,10.7-10.8c5-3.6,8.3-6.5,9.9-8.7c1.6-2.2,2.4-4.7,2.4-7.5
			c0-3.1-1.1-5.4-3.4-7.1c-2.3-1.6-5.5-2.4-9.6-2.4c-7.1,0-15.3,2.3-24.4,7l-7.8-15.6c10.6-5.9,21.9-8.9,33.8-8.9
			c9.8,0,17.6,2.4,23.4,7.1c5.8,4.7,8.7,11,8.7,18.8c0,5.2-1.2,9.8-3.6,13.6c-2.4,3.8-6.9,8.1-13.6,12.8c-4.6,3.4-7.5,5.9-8.7,7.7
			c-1.2,1.8-1.8,4.1-1.8,6.9v4.3H838z M835.7,159.8c0-4,1.1-7,3.2-9.1c2.1-2,5.3-3.1,9.3-3.1c3.9,0,7,1,9.2,3.1
			c2.2,2.1,3.2,5.1,3.2,9c0,3.8-1.1,6.7-3.3,8.9c-2.2,2.2-5.2,3.2-9.1,3.2c-4,0-7.1-1.1-9.3-3.2
			C836.8,166.7,835.7,163.7,835.7,159.8z"/>
	</g>
</g>
<rect x="-0.1" y="952.6" class="st13" width="1180.1" height="83.2"/>
<g>
	<path class="st14" d="M244.8,333l-61.1,116l12.4,6.5l61.1-116c3.4,0.4,6.9-1.2,8.6-4.5l14.2-27l-22.2-11.7l-14.2,27
		C241.9,326.6,242.5,330.4,244.8,333z"/>
	<polygon class="st14" points="221.5,478.5 153.4,442.6 159.7,430.6 227.9,466.5 	"/>
	
		<rect x="100.1" y="485.6" transform="matrix(0.4661 -0.8847 0.8847 0.4661 -365.775 415.3856)" class="st14" width="122.3" height="50.3"/>
</g>
<path class="st2" d="M227.9,480.4c-2.3-8.5-6.9-15.7-12.9-21.4c0.9,10.3-2.3,20.9-10.4,28.2c-1.1,1.6-2.4,3-3.8,4.4
	c-0.8,1.1-1.7,2.1-2.5,3.1c6,10.7,10.5,22.3,13.2,34.5C225.9,518,232.9,499,227.9,480.4z"/>
</svg>
