<?xml version="1.0" encoding="utf-8"?>
<!-- Generator: Adobe Illustrator 28.2.0, SVG Export Plug-In . SVG Version: 6.00 Build 0)  -->
<svg version="1.1" id="Ebene_1" xmlns="http://www.w3.org/2000/svg" xmlns:xlink="http://www.w3.org/1999/xlink" x="0px" y="0px"
	 viewBox="0 0 800 800" style="enable-background:new 0 0 800 800;" xml:space="preserve">
<style type="text/css">
	.st0{fill-rule:evenodd;clip-rule:evenodd;}
	.cl_farbenBlue_hp{fill:#0452ac;}
</style>
<path id="形状" class="st0 cl_farbenBlue_hp" d="M381.5,144.3c10.4-3.9,21.7-4.4,32.4-1.5l4.5,1.5l183.9,69c19.1,7.2,32.3,24.7,33.9,44.9l0.2,4.3
	v140.9c0,86.9-47.7,166.6-123.7,207.9l-7,3.6L417.6,659c-9.9,4.9-21.3,5.5-31.5,1.6l-3.8-1.6l-88.1-44.1
	C216.5,576,166.5,497.7,163.6,411.3l-0.1-7.9V262.5c0-20.4,11.8-38.9,30.1-47.5l4-1.7L381.5,144.3z M490.2,313.3L369.4,434.2
	l-46.5-46.5c-10.3-10.3-26.9-10.3-37.2,0c-10.3,10.3-10.3,26.9,0,37.2l63.2,63.2c11.3,11.3,29.6,11.3,40.9,0l137.5-137.6
	c10.3-10.3,10.3-26.9,0-37.2C517.1,303.1,500.5,303.1,490.2,313.3z"/>
</svg>
