<?xml version="1.0" encoding="utf-8"?>
<!-- Generator: Adobe Illustrator 28.2.0, SVG Export Plug-In . SVG Version: 6.00 Build 0)  -->
<svg version="1.1" id="_x32_" xmlns="http://www.w3.org/2000/svg" xmlns:xlink="http://www.w3.org/1999/xlink" x="0px" y="0px"
	 viewBox="0 0 800 800" style="enable-background:new 0 0 800 800;" xml:space="preserve">
<style type="text/css">
	.st0{fill:#0452ac;}
</style>
<g>
	<path class="st0" d="M616.8,194.5c-52-52.1-114.7-78.8-191.1-80.5c-39.1-0.9-54.9,57.5-12.5,66c45.8,9.2,114.6,24.4,154.2,63.9
		c39.5,39.6,63.9,93.9,63.9,154.2c0,60.3-24.4,114.6-63.9,154.2c-39.6,39.5-93.9,63.9-154.2,63.9c-60.3,0-114.6-24.4-154.2-63.9
		c-39.5-39.6-63.9-93.9-63.9-154.2c0-19.8,2.7-38.8,7.6-57l28.3,17.6c3.7,2.3,8.3,2.8,12,1.3c3.8-1.6,6.2-4.9,6.5-8.9l12.2-159.5
		c0.3-4.6-2.2-9.2-6.4-11.9c-4.3-2.6-9.6-2.9-13.5-0.5L104,260.4c-3.5,2-5.4,5.7-5.1,9.8c0.3,4.1,2.7,7.9,6.5,10.3l36.1,22.5
		c-10.4,29.8-16.2,61.9-16.2,95.1c0,79.4,32.3,151.6,84.3,203.6c52,52,124.2,84.3,203.6,84.3c79.4,0,151.6-32.3,203.6-84.3
		c52-52,84.3-124.2,84.3-203.6C701.1,318.7,668.8,246.5,616.8,194.5z"/>
	<path class="st0" d="M349.2,240.7h-48.6c-5.8,0-9.2-3.2-9.2-9v-4.1c0-5.8,3.2-9,9-9h68.8c5.8,0,9,3.2,9,9v4.1c0,4.9-1.5,7.3-3.2,12
		c-12,32.3-30.7,53.5-32.3,96.5c-0.2,6-3.9,9-8.8,9h-10.1c-6.2,0-8.4-3.2-8.2-9.2C317.2,297.7,333.6,277,349.2,240.7z"/>
	<path class="st0" d="M402.3,291.5c1.5-5.2,5.6-8.6,11-8.6h6.5c5.4,0,8,3.9,6.5,9.2l-36.3,127.7c-1.5,5.2-5.6,8.6-11,8.6h-6.4
		c-5.4,0-8-3.9-6.5-9.2L402.3,291.5z"/>
	<path class="st0" d="M409.7,495.3c0-49,55.3-54.2,55.3-79.1c0-6.9-3-15.3-17.4-15.3c-8.6,0-15.9,2.8-19.3,4.1
		c-5.4,2.2-9.5,0.2-11.6-4.9l-1.5-3.7c-2.1-5.2,0-9.5,5.4-11.8c4.7-1.9,15.1-5.8,27.3-5.8c26.9,0,43.6,15.7,43.6,37.4
		c0,38.3-55.2,46.9-55.2,73.8h46.4c5.4,0,9,3.6,9,9v3.7c0,5.4-3.6,9-9,9h-64.1c-5.4,0-9-3.6-9-9V495.3z"/>
	<path class="st0" d="M499.2,460.9l14-68.4c1.1-5.6,5-8.2,10.5-8.2h6.7c5.4,0,8.4,3.7,7.3,9.7L525,460.3c-0.9,4.3-0.2,6.9,4.3,6.9
		h14.2v-35.9c0-5.4,2.8-9.3,8.2-10.1l7.9-1.1c5.6-0.7,9.3,2.2,9.3,7.7v39.4h13.3c5.4,0,9,3.6,9,9v3.7c0,5.4-3.5,9-9,9H569v16.8
		c0,5.4-3.6,9-9,9h-7.5c-5.4,0-9-3.6-9-9v-16.8h-21.3C502.8,488.9,495.1,480.7,499.2,460.9z"/>
</g>
</svg>
